<?xml version="1.0" encoding="utf-8"?>
<!-- Generator: Adobe Illustrator 27.5.0, SVG Export Plug-In . SVG Version: 6.00 Build 0)  -->
<svg version="1.1" xmlns="http://www.w3.org/2000/svg" xmlns:xlink="http://www.w3.org/1999/xlink" x="0px" y="0px"
	 viewBox="0 0 500 500" style="enable-background:new 0 0 500 500;" xml:space="preserve">
<g id="Objects">
	<g>
		<g>
			<rect x="83.315" y="111.085" style="fill:#1D1D1B;" width="8.692" height="4.535"/>
			<rect x="94.931" y="111.085" style="fill:#1D1D1B;" width="8.692" height="4.535"/>
			<rect x="94.931" y="102.393" style="fill:#1D1D1B;" width="8.692" height="4.535"/>
			<rect x="106.547" y="111.085" style="fill:#1D1D1B;" width="8.692" height="4.535"/>
			<rect x="106.547" y="102.393" style="fill:#1D1D1B;" width="8.692" height="4.535"/>
			<rect x="106.547" y="93.701" style="fill:#1D1D1B;" width="8.692" height="4.535"/>
			<rect x="71.123" y="111.085" style="fill:#1D1D1B;" width="8.692" height="4.535"/>
			<rect x="71.123" y="102.393" style="fill:#1D1D1B;" width="8.692" height="4.535"/>
			<rect x="71.123" y="93.701" style="fill:#1D1D1B;" width="8.692" height="4.535"/>
			<rect x="118.164" y="111.085" style="fill:#1D1D1B;" width="8.692" height="4.535"/>
			<rect x="118.164" y="102.393" style="fill:#1D1D1B;" width="8.692" height="4.535"/>
			<rect x="118.164" y="93.701" style="fill:#1D1D1B;" width="8.692" height="4.535"/>
			<rect x="118.164" y="85.008" style="fill:#1D1D1B;" width="8.692" height="4.535"/>
			<rect x="83.315" y="102.393" style="fill:#1D1D1B;" width="8.692" height="4.535"/>
			<rect x="83.315" y="93.701" style="fill:#1D1D1B;" width="8.692" height="4.535"/>
			<rect x="83.315" y="85.008" style="fill:#1D1D1B;" width="8.692" height="4.535"/>
			<rect x="129.78" y="111.085" style="fill:#1D1D1B;" width="8.692" height="4.535"/>
			<rect x="129.78" y="102.393" style="fill:#1D1D1B;" width="8.692" height="4.535"/>
			<rect x="129.78" y="93.701" style="fill:#1D1D1B;" width="8.692" height="4.535"/>
			<rect x="129.78" y="85.008" style="fill:#1D1D1B;" width="8.692" height="4.535"/>
			<rect x="129.78" y="76.316" style="fill:#1D1D1B;" width="8.692" height="4.535"/>
			<rect x="141.396" y="111.085" style="fill:#1D1D1B;" width="8.692" height="4.535"/>
			<rect x="141.396" y="102.393" style="fill:#1D1D1B;" width="8.692" height="4.535"/>
			<rect x="141.396" y="93.701" style="fill:#1D1D1B;" width="8.692" height="4.535"/>
			<rect x="141.396" y="85.008" style="fill:#1D1D1B;" width="8.692" height="4.535"/>
			<rect x="141.396" y="76.316" style="fill:#1D1D1B;" width="8.692" height="4.535"/>
			<rect x="141.396" y="67.623" style="fill:#1D1D1B;" width="8.692" height="4.535"/>
			<rect x="153.012" y="111.085" style="fill:#1D1D1B;" width="8.692" height="4.535"/>
			<rect x="153.012" y="102.393" style="fill:#1D1D1B;" width="8.692" height="4.535"/>
			<rect x="153.012" y="93.701" style="fill:#1D1D1B;" width="8.692" height="4.535"/>
			<rect x="153.012" y="85.008" style="fill:#1D1D1B;" width="8.692" height="4.535"/>
			<rect x="153.012" y="76.316" style="fill:#1D1D1B;" width="8.692" height="4.535"/>
			<rect x="153.012" y="67.623" style="fill:#1D1D1B;" width="8.692" height="4.535"/>
			<rect x="153.012" y="58.931" style="fill:#1D1D1B;" width="8.692" height="4.535"/>
			<rect x="164.628" y="111.085" style="fill:#1D1D1B;" width="8.692" height="4.535"/>
			<rect x="164.628" y="102.393" style="fill:#1D1D1B;" width="8.692" height="4.535"/>
			<rect x="164.628" y="93.701" style="fill:#1D1D1B;" width="8.692" height="4.535"/>
			<rect x="164.628" y="85.008" style="fill:#1D1D1B;" width="8.692" height="4.535"/>
			<rect x="164.628" y="76.316" style="fill:#1D1D1B;" width="8.692" height="4.535"/>
			<rect x="164.628" y="67.623" style="fill:#1D1D1B;" width="8.692" height="4.535"/>
			<rect x="164.628" y="58.931" style="fill:#1D1D1B;" width="8.692" height="4.535"/>
			<rect x="164.628" y="50.239" style="fill:#1D1D1B;" width="8.692" height="4.535"/>
			<rect x="176.244" y="111.085" style="fill:#1D1D1B;" width="8.692" height="4.535"/>
			<rect x="176.244" y="102.393" style="fill:#1D1D1B;" width="8.692" height="4.535"/>
			<rect x="176.244" y="93.701" style="fill:#1D1D1B;" width="8.692" height="4.535"/>
			<rect x="176.244" y="85.008" style="fill:#1D1D1B;" width="8.692" height="4.535"/>
			<rect x="176.244" y="76.316" style="fill:#1D1D1B;" width="8.692" height="4.535"/>
			<rect x="176.244" y="67.623" style="fill:#1D1D1B;" width="8.692" height="4.535"/>
			<rect x="176.244" y="58.931" style="fill:#1D1D1B;" width="8.692" height="4.535"/>
			<rect x="187.86" y="111.085" style="fill:#1D1D1B;" width="8.692" height="4.535"/>
			<rect x="187.86" y="102.393" style="fill:#1D1D1B;" width="8.692" height="4.535"/>
			<rect x="187.86" y="93.701" style="fill:#1D1D1B;" width="8.692" height="4.535"/>
			<rect x="187.86" y="85.008" style="fill:#1D1D1B;" width="8.692" height="4.535"/>
			<rect x="187.86" y="76.316" style="fill:#1D1D1B;" width="8.692" height="4.535"/>
			<rect x="187.86" y="67.623" style="fill:#1D1D1B;" width="8.692" height="4.535"/>
			<rect x="199.477" y="111.085" style="fill:#1D1D1B;" width="8.692" height="4.535"/>
			<rect x="199.477" y="102.393" style="fill:#1D1D1B;" width="8.692" height="4.535"/>
			<rect x="199.477" y="93.701" style="fill:#1D1D1B;" width="8.692" height="4.535"/>
			<rect x="199.477" y="85.008" style="fill:#1D1D1B;" width="8.692" height="4.535"/>
			<rect x="199.477" y="76.316" style="fill:#1D1D1B;" width="8.692" height="4.535"/>
			<rect x="211.093" y="111.085" style="fill:#1D1D1B;" width="8.692" height="4.535"/>
			<rect x="211.093" y="102.393" style="fill:#1D1D1B;" width="8.692" height="4.535"/>
			<rect x="211.093" y="93.701" style="fill:#1D1D1B;" width="8.692" height="4.535"/>
			<rect x="211.093" y="85.008" style="fill:#1D1D1B;" width="8.692" height="4.535"/>
			<rect x="211.093" y="76.316" style="fill:#1D1D1B;" width="8.692" height="4.535"/>
			<rect x="211.093" y="67.623" style="fill:#1D1D1B;" width="8.692" height="4.535"/>
			<rect x="222.709" y="111.085" style="fill:#1D1D1B;" width="8.692" height="4.535"/>
			<rect x="222.709" y="102.393" style="fill:#1D1D1B;" width="8.692" height="4.535"/>
			<rect x="222.709" y="93.701" style="fill:#1D1D1B;" width="8.692" height="4.535"/>
			<rect x="222.709" y="85.008" style="fill:#1D1D1B;" width="8.692" height="4.535"/>
			<rect x="222.709" y="76.316" style="fill:#1D1D1B;" width="8.692" height="4.535"/>
			<rect x="222.709" y="67.623" style="fill:#1D1D1B;" width="8.692" height="4.535"/>
			<rect x="234.325" y="111.085" style="fill:#1D1D1B;" width="8.692" height="4.535"/>
			<rect x="234.325" y="102.393" style="fill:#1D1D1B;" width="8.692" height="4.535"/>
			<rect x="234.325" y="93.701" style="fill:#1D1D1B;" width="8.692" height="4.535"/>
			<rect x="234.325" y="85.008" style="fill:#1D1D1B;" width="8.692" height="4.535"/>
			<rect x="234.325" y="76.316" style="fill:#1D1D1B;" width="8.692" height="4.535"/>
			<rect x="234.325" y="67.623" style="fill:#1D1D1B;" width="8.692" height="4.535"/>
			<rect x="234.325" y="58.931" style="fill:#1D1D1B;" width="8.692" height="4.535"/>
			<rect x="245.941" y="111.085" style="fill:#1D1D1B;" width="8.692" height="4.535"/>
			<rect x="245.941" y="102.393" style="fill:#1D1D1B;" width="8.692" height="4.535"/>
			<rect x="245.941" y="93.701" style="fill:#1D1D1B;" width="8.692" height="4.535"/>
			<rect x="245.941" y="85.008" style="fill:#1D1D1B;" width="8.692" height="4.535"/>
			<rect x="245.941" y="76.316" style="fill:#1D1D1B;" width="8.692" height="4.535"/>
			<rect x="245.941" y="67.623" style="fill:#1D1D1B;" width="8.692" height="4.535"/>
			<rect x="257.558" y="111.085" style="fill:#1D1D1B;" width="8.692" height="4.535"/>
			<rect x="257.558" y="102.393" style="fill:#1D1D1B;" width="8.692" height="4.535"/>
			<rect x="257.558" y="93.701" style="fill:#1D1D1B;" width="8.692" height="4.535"/>
			<rect x="257.558" y="85.008" style="fill:#1D1D1B;" width="8.692" height="4.535"/>
			<rect x="257.558" y="76.316" style="fill:#1D1D1B;" width="8.692" height="4.535"/>
			<rect x="269.174" y="111.085" style="fill:#1D1D1B;" width="8.692" height="4.535"/>
			<rect x="269.174" y="102.393" style="fill:#1D1D1B;" width="8.692" height="4.535"/>
			<rect x="269.174" y="93.701" style="fill:#1D1D1B;" width="8.692" height="4.535"/>
			<rect x="269.174" y="85.008" style="fill:#1D1D1B;" width="8.692" height="4.535"/>
			<rect x="269.174" y="76.316" style="fill:#1D1D1B;" width="8.692" height="4.535"/>
			<rect x="269.174" y="67.623" style="fill:#1D1D1B;" width="8.692" height="4.535"/>
			<rect x="280.79" y="111.085" style="fill:#1D1D1B;" width="8.692" height="4.535"/>
			<rect x="280.79" y="102.393" style="fill:#1D1D1B;" width="8.692" height="4.535"/>
			<rect x="280.79" y="93.701" style="fill:#1D1D1B;" width="8.692" height="4.535"/>
			<rect x="280.79" y="85.008" style="fill:#1D1D1B;" width="8.692" height="4.535"/>
			<rect x="280.79" y="76.316" style="fill:#1D1D1B;" width="8.692" height="4.535"/>
			<rect x="280.79" y="67.623" style="fill:#1D1D1B;" width="8.692" height="4.535"/>
			<rect x="280.79" y="58.931" style="fill:#1D1D1B;" width="8.692" height="4.535"/>
			<rect x="292.406" y="111.085" style="fill:#1D1D1B;" width="8.692" height="4.535"/>
			<rect x="292.406" y="102.393" style="fill:#1D1D1B;" width="8.692" height="4.535"/>
			<rect x="292.406" y="93.701" style="fill:#1D1D1B;" width="8.692" height="4.535"/>
			<rect x="292.406" y="85.008" style="fill:#1D1D1B;" width="8.692" height="4.535"/>
			<rect x="292.406" y="76.316" style="fill:#1D1D1B;" width="8.692" height="4.535"/>
			<rect x="292.406" y="67.623" style="fill:#1D1D1B;" width="8.692" height="4.535"/>
			<rect x="292.406" y="58.931" style="fill:#1D1D1B;" width="8.692" height="4.535"/>
			<rect x="292.406" y="50.239" style="fill:#1D1D1B;" width="8.692" height="4.535"/>
			<rect x="304.022" y="111.085" style="fill:#1D1D1B;" width="8.692" height="4.535"/>
			<rect x="304.022" y="102.393" style="fill:#1D1D1B;" width="8.692" height="4.535"/>
			<rect x="304.022" y="93.701" style="fill:#1D1D1B;" width="8.692" height="4.535"/>
			<rect x="304.022" y="85.008" style="fill:#1D1D1B;" width="8.692" height="4.535"/>
			<rect x="304.022" y="76.316" style="fill:#1D1D1B;" width="8.692" height="4.535"/>
			<rect x="315.639" y="111.085" style="fill:#1D1D1B;" width="8.692" height="4.535"/>
			<rect x="315.639" y="102.393" style="fill:#1D1D1B;" width="8.692" height="4.535"/>
			<rect x="315.639" y="93.701" style="fill:#1D1D1B;" width="8.692" height="4.535"/>
			<rect x="327.255" y="111.085" style="fill:#1D1D1B;" width="8.692" height="4.535"/>
			<rect x="327.255" y="102.393" style="fill:#1D1D1B;" width="8.692" height="4.535"/>
			<rect x="327.255" y="93.701" style="fill:#1D1D1B;" width="8.692" height="4.535"/>
			<rect x="338.871" y="111.085" style="fill:#1D1D1B;" width="8.692" height="4.535"/>
			<rect x="338.871" y="102.393" style="fill:#1D1D1B;" width="8.692" height="4.535"/>
			<rect x="338.871" y="93.701" style="fill:#1D1D1B;" width="8.692" height="4.535"/>
			<rect x="338.871" y="85.008" style="fill:#1D1D1B;" width="8.692" height="4.535"/>
			<rect x="338.871" y="76.316" style="fill:#1D1D1B;" width="8.692" height="4.535"/>
			<rect x="350.487" y="111.085" style="fill:#1D1D1B;" width="8.692" height="4.535"/>
			<rect x="350.487" y="102.393" style="fill:#1D1D1B;" width="8.692" height="4.535"/>
			<rect x="350.487" y="93.701" style="fill:#1D1D1B;" width="8.692" height="4.535"/>
			<rect x="350.487" y="85.008" style="fill:#1D1D1B;" width="8.692" height="4.535"/>
			<rect x="350.487" y="76.316" style="fill:#1D1D1B;" width="8.692" height="4.535"/>
			<rect x="350.487" y="67.623" style="fill:#1D1D1B;" width="8.692" height="4.535"/>
			<rect x="362.103" y="111.085" style="fill:#1D1D1B;" width="8.692" height="4.535"/>
			<rect x="362.103" y="102.393" style="fill:#1D1D1B;" width="8.692" height="4.535"/>
			<rect x="362.103" y="93.701" style="fill:#1D1D1B;" width="8.692" height="4.535"/>
			<rect x="362.103" y="85.008" style="fill:#1D1D1B;" width="8.692" height="4.535"/>
			<rect x="362.103" y="76.316" style="fill:#1D1D1B;" width="8.692" height="4.535"/>
			<rect x="362.103" y="67.623" style="fill:#1D1D1B;" width="8.692" height="4.535"/>
			<rect x="362.103" y="58.931" style="fill:#1D1D1B;" width="8.692" height="4.535"/>
			<rect x="362.103" y="50.239" style="fill:#1D1D1B;" width="8.692" height="4.535"/>
			<rect x="373.72" y="111.085" style="fill:#1D1D1B;" width="8.692" height="4.535"/>
			<rect x="373.72" y="102.393" style="fill:#1D1D1B;" width="8.692" height="4.535"/>
			<rect x="373.72" y="93.701" style="fill:#1D1D1B;" width="8.692" height="4.535"/>
			<rect x="373.72" y="85.008" style="fill:#1D1D1B;" width="8.692" height="4.535"/>
			<rect x="373.72" y="76.316" style="fill:#1D1D1B;" width="8.692" height="4.535"/>
			<rect x="373.72" y="67.623" style="fill:#1D1D1B;" width="8.692" height="4.535"/>
			<rect x="373.72" y="58.931" style="fill:#1D1D1B;" width="8.692" height="4.535"/>
			<rect x="385.336" y="111.085" style="fill:#1D1D1B;" width="8.692" height="4.535"/>
			<rect x="385.336" y="102.393" style="fill:#1D1D1B;" width="8.692" height="4.535"/>
			<rect x="385.336" y="93.701" style="fill:#1D1D1B;" width="8.692" height="4.535"/>
			<rect x="385.336" y="85.008" style="fill:#1D1D1B;" width="8.692" height="4.535"/>
			<rect x="385.336" y="76.316" style="fill:#1D1D1B;" width="8.692" height="4.535"/>
			<rect x="385.336" y="67.623" style="fill:#1D1D1B;" width="8.692" height="4.535"/>
			<rect x="396.952" y="111.085" style="fill:#1D1D1B;" width="8.692" height="4.535"/>
			<rect x="396.952" y="102.393" style="fill:#1D1D1B;" width="8.692" height="4.535"/>
			<rect x="396.952" y="93.701" style="fill:#1D1D1B;" width="8.692" height="4.535"/>
			<rect x="396.952" y="85.008" style="fill:#1D1D1B;" width="8.692" height="4.535"/>
			<rect x="396.952" y="76.316" style="fill:#1D1D1B;" width="8.692" height="4.535"/>
			<rect x="396.952" y="67.623" style="fill:#1D1D1B;" width="8.692" height="4.535"/>
			<rect x="408.568" y="111.085" style="fill:#1D1D1B;" width="8.692" height="4.535"/>
			<rect x="408.568" y="102.393" style="fill:#1D1D1B;" width="8.692" height="4.535"/>
			<rect x="408.568" y="93.701" style="fill:#1D1D1B;" width="8.692" height="4.535"/>
			<rect x="408.568" y="85.008" style="fill:#1D1D1B;" width="8.692" height="4.535"/>
			<rect x="408.568" y="76.316" style="fill:#1D1D1B;" width="8.692" height="4.535"/>
			<rect x="408.568" y="67.623" style="fill:#1D1D1B;" width="8.692" height="4.535"/>
			<rect x="408.568" y="58.931" style="fill:#1D1D1B;" width="8.692" height="4.535"/>
			<rect x="420.185" y="111.085" style="fill:#1D1D1B;" width="8.692" height="4.535"/>
			<rect x="420.185" y="102.393" style="fill:#1D1D1B;" width="8.692" height="4.535"/>
			<rect x="420.185" y="93.701" style="fill:#1D1D1B;" width="8.692" height="4.535"/>
			<rect x="420.185" y="85.008" style="fill:#1D1D1B;" width="8.692" height="4.535"/>
		</g>
		<line style="fill:#777776;stroke:#1D1D1B;stroke-width:2;stroke-miterlimit:10;" x1="62" y1="119" x2="438" y2="119"/>
	</g>
	<g>
		<g>
			<line style="fill:#1D1D1B;" x1="74" y1="163" x2="74" y2="187"/>
			<polygon style="fill:#1D1D1B;" points="74.97,163 77.586,187 69.891,187 72.508,163 			"/>
		</g>
		<g>
			<line style="fill:#1D1D1B;" x1="84" y1="153" x2="84" y2="187"/>
			<polygon style="fill:#1D1D1B;" points="85.594,153 88.21,187 80.515,187 83.132,153 			"/>
		</g>
		<g>
			<line style="fill:#1D1D1B;" x1="95" y1="142" x2="95" y2="187"/>
			<polygon style="fill:#1D1D1B;" points="96.218,142 98.834,187 91.139,187 93.756,142 			"/>
		</g>
		<g>
			<line style="fill:#1D1D1B;" x1="106" y1="153" x2="106" y2="187"/>
			<polygon style="fill:#1D1D1B;" points="106.842,153 109.458,187 101.763,187 104.38,153 			"/>
		</g>
		<g>
			<line style="fill:#1D1D1B;" x1="116" y1="163" x2="116" y2="187"/>
			<polygon style="fill:#1D1D1B;" points="117.465,163 120.082,187 112.387,187 115.003,163 			"/>
		</g>
		<g>
			<line style="fill:#1D1D1B;" x1="127" y1="132" x2="127" y2="187"/>
			<polygon style="fill:#1D1D1B;" points="128.089,132 130.706,187 123.011,187 125.627,132 			"/>
		</g>
		<g>
			<line style="fill:#1D1D1B;" x1="137" y1="174" x2="137" y2="187"/>
			<polygon style="fill:#1D1D1B;" points="138.713,174 141.33,187 133.635,187 136.251,174 			"/>
		</g>
		<g>
			<line style="fill:#1D1D1B;" x1="148" y1="163" x2="148" y2="187"/>
			<polygon style="fill:#1D1D1B;" points="149.337,163 151.954,187 144.259,187 146.875,163 			"/>
		</g>
		<g>
			<line style="fill:#1D1D1B;" x1="159" y1="153" x2="159" y2="187"/>
			<polygon style="fill:#1D1D1B;" points="159.961,153 162.578,187 154.883,187 157.499,153 			"/>
		</g>
		<g>
			<line style="fill:#1D1D1B;" x1="169" y1="132" x2="169" y2="187"/>
			<polygon style="fill:#1D1D1B;" points="170.585,132 173.202,187 165.507,187 168.123,132 			"/>
		</g>
		<g>
			<line style="fill:#1D1D1B;" x1="180" y1="153" x2="180" y2="187"/>
			<polygon style="fill:#1D1D1B;" points="181.209,153 183.826,187 176.131,187 178.748,153 			"/>
		</g>
		<g>
			<line style="fill:#1D1D1B;" x1="191" y1="142" x2="191" y2="187"/>
			<polygon style="fill:#1D1D1B;" points="191.833,142 194.45,187 186.755,187 189.372,142 			"/>
		</g>
		<g>
			<line style="fill:#1D1D1B;" x1="201" y1="163" x2="201" y2="187"/>
			<polygon style="fill:#1D1D1B;" points="202.457,163 205.074,187 197.379,187 199.996,163 			"/>
		</g>
		<g>
			<line style="fill:#1D1D1B;" x1="212" y1="153" x2="212" y2="187"/>
			<polygon style="fill:#1D1D1B;" points="213.081,153 215.698,187 208.002,187 210.619,153 			"/>
		</g>
		<g>
			<line style="fill:#1D1D1B;" x1="222" y1="142" x2="222" y2="187"/>
			<polygon style="fill:#1D1D1B;" points="223.705,142 226.322,187 218.626,187 221.243,142 			"/>
		</g>
		<g>
			<line style="fill:#1D1D1B;" x1="233" y1="153" x2="233" y2="187"/>
			<polygon style="fill:#1D1D1B;" points="234.329,153 236.946,187 229.25,187 231.867,153 			"/>
		</g>
		<g>
			<line style="fill:#1D1D1B;" x1="244" y1="163" x2="244" y2="187"/>
			<polygon style="fill:#1D1D1B;" points="244.953,163 247.57,187 239.874,187 242.491,163 			"/>
		</g>
		<g>
			<line style="fill:#1D1D1B;" x1="254" y1="174" x2="254" y2="187"/>
			<polygon style="fill:#1D1D1B;" points="255.576,174 258.193,187 250.498,187 253.115,174 			"/>
		</g>
		<g>
			<line style="fill:#1D1D1B;" x1="265" y1="163" x2="265" y2="187"/>
			<polygon style="fill:#1D1D1B;" points="266.201,163 268.817,187 261.122,187 263.738,163 			"/>
		</g>
		<g>
			<line style="fill:#1D1D1B;" x1="276" y1="153" x2="276" y2="187"/>
			<polygon style="fill:#1D1D1B;" points="276.824,153 279.441,187 271.746,187 274.363,153 			"/>
		</g>
		<g>
			<line style="fill:#1D1D1B;" x1="286" y1="142" x2="286" y2="187"/>
			<polygon style="fill:#1D1D1B;" points="287.449,142 290.065,187 282.37,187 284.986,142 			"/>
		</g>
		<g>
			<line style="fill:#1D1D1B;" x1="297" y1="153" x2="297" y2="187"/>
			<polygon style="fill:#1D1D1B;" points="298.072,153 300.689,187 292.994,187 295.611,153 			"/>
		</g>
		<g>
			<line style="fill:#1D1D1B;" x1="307" y1="153" x2="307" y2="187"/>
			<polygon style="fill:#1D1D1B;" points="308.697,153 311.313,187 303.618,187 306.234,153 			"/>
		</g>
		<g>
			<line style="fill:#1D1D1B;" x1="318" y1="163" x2="318" y2="187"/>
			<polygon style="fill:#1D1D1B;" points="319.32,163 321.938,187 314.242,187 316.859,163 			"/>
		</g>
		<g>
			<line style="fill:#1D1D1B;" x1="329" y1="153" x2="329" y2="187"/>
			<polygon style="fill:#1D1D1B;" points="329.945,153 332.561,187 324.866,187 327.482,153 			"/>
		</g>
		<g>
			<line style="fill:#1D1D1B;" x1="339" y1="142" x2="339" y2="187"/>
			<polygon style="fill:#1D1D1B;" points="340.568,142 343.185,187 335.49,187 338.107,142 			"/>
		</g>
		<g>
			<line style="fill:#1D1D1B;" x1="350" y1="163" x2="350" y2="187"/>
			<polygon style="fill:#1D1D1B;" points="351.193,163 353.81,187 346.114,187 348.73,163 			"/>
		</g>
		<g>
			<line style="fill:#1D1D1B;" x1="361" y1="163" x2="361" y2="187"/>
			<polygon style="fill:#1D1D1B;" points="361.816,163 364.434,187 356.738,187 359.355,163 			"/>
		</g>
		<g>
			<line style="fill:#1D1D1B;" x1="371" y1="153" x2="371" y2="187"/>
			<polygon style="fill:#1D1D1B;" points="372.441,153 375.058,187 367.362,187 369.978,153 			"/>
		</g>
		<g>
			<line style="fill:#1D1D1B;" x1="382" y1="142" x2="382" y2="187"/>
			<polygon style="fill:#1D1D1B;" points="383.064,142 385.682,187 377.986,187 380.603,142 			"/>
		</g>
		<g>
			<line style="fill:#1D1D1B;" x1="392" y1="153" x2="392" y2="187"/>
			<polygon style="fill:#1D1D1B;" points="393.689,153 396.306,187 388.61,187 391.227,153 			"/>
		</g>
		<g>
			<line style="fill:#1D1D1B;" x1="403" y1="163" x2="403" y2="187"/>
			<polygon style="fill:#1D1D1B;" points="404.313,163 406.93,187 399.234,187 401.852,163 			"/>
		</g>
		<g>
			<line style="fill:#1D1D1B;" x1="414" y1="163" x2="414" y2="187"/>
			<polygon style="fill:#1D1D1B;" points="414.938,163 417.554,187 409.858,187 412.475,163 			"/>
		</g>
		<g>
			<line style="fill:#1D1D1B;" x1="424" y1="174" x2="424" y2="187"/>
			<polygon style="fill:#1D1D1B;" points="425.56,174 428.178,187 420.482,187 423.1,174 			"/>
		</g>
		<line style="fill:#777776;stroke:#1D1D1B;stroke-width:2;stroke-miterlimit:10;" x1="62" y1="186" x2="438" y2="186"/>
	</g>
	<g>
		<path style="fill:none;stroke:#1D1D1B;stroke-width:2;stroke-miterlimit:10;" d="M424.066,337.096c0,0-1.063,3.874-2.863,12.519
			c-1.801,8.644-2.34,10.103-4.86,10.103c-9.824,0-7.838-58.709-17.378-58.709c-9.54,0-9.263,38.84-17.543,38.84
			c-8.28,0-1.08-36.146-11.521-36.146c-10.44,0-0.9,37.493-10.44,37.493c-9.54,0-4.32-13.92-11.16-13.92
			c-6.841,0-4.68,32.104-12.601,31.432c-7.921-0.674-2.341-42.096-10.081-41.983c-7.739,0.112-1.802,43.33-10.983,42.769
			c-9.18-0.561-2.52-53.77-11.52-53.77c-9.002,0-0.362,45.351-11.702,45.574c-11.341,0.225-4.681-35.022-13.142-35.022
			c-8.46,0-12.24-1.122-12.24,2.919c0,4.04-1.26,8.98-8.64,8.98c-7.381,0-5.761,17.736-11.162,17.513
			c-5.4-0.225-2.699-34.799-9.719-34.686c-7.022,0.112-2.701,5.052-11.702,5.164c-9,0.111-2.879,22.675-11.16,22.675
			c-8.281,0-6.119,21.104-13.861,21.104c-7.741,0-1.981-35.473-11.701-35.473c-9.721,0-4.68-27.614-10.8-27.614
			c-6.12,0-0.18,35.473-13.142,35.473c-12.96,0-0.718,14.592-10.44,14.592c-9.72,0-1.8-37.155-9-37.155
			c-7.201,0-1.081,12.011-13.322,12.011c-12.24,0-0.9-28.736-11.34-27.614c-10.441,1.122-3.42,63.873-16.56,63.423
			c-13.142-0.448-0.9-50.064-9.722-50.064c-8.82,0,2.349,27.255-21.847,29.524"/>
		<line style="fill:#777776;stroke:#1D1D1B;stroke-width:2;stroke-miterlimit:10;" x1="62" y1="337" x2="438" y2="337"/>
	</g>
	<g>
		<g>
			<line style="fill:none;stroke:#1D1D1B;stroke-width:2;stroke-miterlimit:10;" x1="72" y1="399" x2="72" y2="419"/>
			<line style="fill:none;stroke:#1D1D1B;stroke-width:2;stroke-miterlimit:10;" x1="76" y1="395" x2="76" y2="423"/>
			<line style="fill:none;stroke:#1D1D1B;stroke-width:2;stroke-miterlimit:10;" x1="81" y1="389" x2="81" y2="429"/>
			<line style="fill:none;stroke:#1D1D1B;stroke-width:2;stroke-miterlimit:10;" x1="85" y1="386" x2="85" y2="431"/>
			<line style="fill:none;stroke:#1D1D1B;stroke-width:2;stroke-miterlimit:10;" x1="89" y1="377" x2="89" y2="440"/>
			<line style="fill:none;stroke:#1D1D1B;stroke-width:2;stroke-miterlimit:10;" x1="94" y1="382" x2="94" y2="435"/>
			<line style="fill:none;stroke:#1D1D1B;stroke-width:2;stroke-miterlimit:10;" x1="98" y1="389" x2="98" y2="429"/>
			<line style="fill:none;stroke:#1D1D1B;stroke-width:2;stroke-miterlimit:10;" x1="102" y1="394" x2="102" y2="424"/>
			<line style="fill:none;stroke:#1D1D1B;stroke-width:2;stroke-miterlimit:10;" x1="107" y1="377" x2="107" y2="440"/>
			<line style="fill:none;stroke:#1D1D1B;stroke-width:2;stroke-miterlimit:10;" x1="111" y1="385" x2="111" y2="432"/>
			<line style="fill:none;stroke:#1D1D1B;stroke-width:2;stroke-miterlimit:10;" x1="115" y1="391" x2="115" y2="427"/>
			<line style="fill:none;stroke:#1D1D1B;stroke-width:2;stroke-miterlimit:10;" x1="120" y1="392" x2="120" y2="426"/>
			<line style="fill:none;stroke:#1D1D1B;stroke-width:2;stroke-miterlimit:10;" x1="124" y1="396" x2="124" y2="422"/>
			<line style="fill:none;stroke:#1D1D1B;stroke-width:2;stroke-miterlimit:10;" x1="128" y1="393" x2="128" y2="425"/>
			<line style="fill:none;stroke:#1D1D1B;stroke-width:2;stroke-miterlimit:10;" x1="133" y1="395" x2="133" y2="423"/>
			<line style="fill:none;stroke:#1D1D1B;stroke-width:2;stroke-miterlimit:10;" x1="137" y1="395" x2="137" y2="423"/>
			<line style="fill:none;stroke:#1D1D1B;stroke-width:2;stroke-miterlimit:10;" x1="141" y1="387" x2="141" y2="430"/>
			<line style="fill:none;stroke:#1D1D1B;stroke-width:2;stroke-miterlimit:10;" x1="146" y1="390" x2="146" y2="428"/>
			<line style="fill:none;stroke:#1D1D1B;stroke-width:2;stroke-miterlimit:10;" x1="150" y1="381" x2="150" y2="436"/>
			<line style="fill:none;stroke:#1D1D1B;stroke-width:2;stroke-miterlimit:10;" x1="154" y1="376" x2="154" y2="441"/>
			<line style="fill:none;stroke:#1D1D1B;stroke-width:2;stroke-miterlimit:10;" x1="159" y1="382" x2="159" y2="435"/>
			<line style="fill:none;stroke:#1D1D1B;stroke-width:2;stroke-miterlimit:10;" x1="163" y1="377" x2="163" y2="440"/>
			<line style="fill:none;stroke:#1D1D1B;stroke-width:2;stroke-miterlimit:10;" x1="168" y1="391" x2="168" y2="427"/>
			<line style="fill:none;stroke:#1D1D1B;stroke-width:2;stroke-miterlimit:10;" x1="172" y1="397" x2="172" y2="421"/>
			<line style="fill:none;stroke:#1D1D1B;stroke-width:2;stroke-miterlimit:10;" x1="176" y1="393" x2="176" y2="425"/>
			<line style="fill:none;stroke:#1D1D1B;stroke-width:2;stroke-miterlimit:10;" x1="181" y1="385" x2="181" y2="432"/>
			<line style="fill:none;stroke:#1D1D1B;stroke-width:2;stroke-miterlimit:10;" x1="185" y1="375" x2="185" y2="442"/>
			<line style="fill:none;stroke:#1D1D1B;stroke-width:2;stroke-miterlimit:10;" x1="189" y1="375" x2="189" y2="442"/>
			<line style="fill:none;stroke:#1D1D1B;stroke-width:2;stroke-miterlimit:10;" x1="194" y1="382" x2="194" y2="435"/>
			<line style="fill:none;stroke:#1D1D1B;stroke-width:2;stroke-miterlimit:10;" x1="198" y1="389" x2="198" y2="429"/>
			<line style="fill:none;stroke:#1D1D1B;stroke-width:2;stroke-miterlimit:10;" x1="202" y1="398" x2="202" y2="420"/>
			<line style="fill:none;stroke:#1D1D1B;stroke-width:2;stroke-miterlimit:10;" x1="207" y1="399" x2="207" y2="419"/>
			<line style="fill:none;stroke:#1D1D1B;stroke-width:2;stroke-miterlimit:10;" x1="211" y1="395" x2="211" y2="423"/>
			<line style="fill:none;stroke:#1D1D1B;stroke-width:2;stroke-miterlimit:10;" x1="215" y1="389" x2="215" y2="429"/>
			<line style="fill:none;stroke:#1D1D1B;stroke-width:2;stroke-miterlimit:10;" x1="220" y1="386" x2="220" y2="431"/>
			<line style="fill:none;stroke:#1D1D1B;stroke-width:2;stroke-miterlimit:10;" x1="224" y1="377" x2="224" y2="440"/>
			<line style="fill:none;stroke:#1D1D1B;stroke-width:2;stroke-miterlimit:10;" x1="228" y1="382" x2="228" y2="435"/>
			<line style="fill:none;stroke:#1D1D1B;stroke-width:2;stroke-miterlimit:10;" x1="233" y1="389" x2="233" y2="429"/>
			<line style="fill:none;stroke:#1D1D1B;stroke-width:2;stroke-miterlimit:10;" x1="237" y1="394" x2="237" y2="424"/>
			<line style="fill:none;stroke:#1D1D1B;stroke-width:2;stroke-miterlimit:10;" x1="241" y1="377" x2="241" y2="440"/>
			<line style="fill:none;stroke:#1D1D1B;stroke-width:2;stroke-miterlimit:10;" x1="246" y1="385" x2="246" y2="432"/>
			<line style="fill:none;stroke:#1D1D1B;stroke-width:2;stroke-miterlimit:10;" x1="250" y1="391" x2="250" y2="427"/>
			<line style="fill:none;stroke:#1D1D1B;stroke-width:2;stroke-miterlimit:10;" x1="254" y1="392" x2="254" y2="426"/>
			<line style="fill:none;stroke:#1D1D1B;stroke-width:2;stroke-miterlimit:10;" x1="259" y1="396" x2="259" y2="422"/>
			<line style="fill:none;stroke:#1D1D1B;stroke-width:2;stroke-miterlimit:10;" x1="263" y1="393" x2="263" y2="425"/>
			<line style="fill:none;stroke:#1D1D1B;stroke-width:2;stroke-miterlimit:10;" x1="267" y1="395" x2="267" y2="423"/>
			<line style="fill:none;stroke:#1D1D1B;stroke-width:2;stroke-miterlimit:10;" x1="272" y1="395" x2="272" y2="423"/>
			<line style="fill:none;stroke:#1D1D1B;stroke-width:2;stroke-miterlimit:10;" x1="276" y1="387" x2="276" y2="430"/>
			<line style="fill:none;stroke:#1D1D1B;stroke-width:2;stroke-miterlimit:10;" x1="280" y1="390" x2="280" y2="428"/>
			<line style="fill:none;stroke:#1D1D1B;stroke-width:2;stroke-miterlimit:10;" x1="285" y1="381" x2="285" y2="436"/>
			<line style="fill:none;stroke:#1D1D1B;stroke-width:2;stroke-miterlimit:10;" x1="289" y1="376" x2="289" y2="441"/>
			<line style="fill:none;stroke:#1D1D1B;stroke-width:2;stroke-miterlimit:10;" x1="293" y1="382" x2="293" y2="435"/>
			<line style="fill:none;stroke:#1D1D1B;stroke-width:2;stroke-miterlimit:10;" x1="298" y1="377" x2="298" y2="440"/>
			<line style="fill:none;stroke:#1D1D1B;stroke-width:2;stroke-miterlimit:10;" x1="302" y1="391" x2="302" y2="427"/>
			<line style="fill:none;stroke:#1D1D1B;stroke-width:2;stroke-miterlimit:10;" x1="306" y1="397" x2="306" y2="421"/>
			<line style="fill:none;stroke:#1D1D1B;stroke-width:2;stroke-miterlimit:10;" x1="311" y1="393" x2="311" y2="425"/>
			<line style="fill:none;stroke:#1D1D1B;stroke-width:2;stroke-miterlimit:10;" x1="315" y1="385" x2="315" y2="432"/>
			<line style="fill:none;stroke:#1D1D1B;stroke-width:2;stroke-miterlimit:10;" x1="319" y1="375" x2="319" y2="442"/>
			<line style="fill:none;stroke:#1D1D1B;stroke-width:2;stroke-miterlimit:10;" x1="324" y1="375" x2="324" y2="442"/>
			<line style="fill:none;stroke:#1D1D1B;stroke-width:2;stroke-miterlimit:10;" x1="328" y1="382" x2="328" y2="435"/>
			<line style="fill:none;stroke:#1D1D1B;stroke-width:2;stroke-miterlimit:10;" x1="332" y1="389" x2="332" y2="429"/>
			<line style="fill:none;stroke:#1D1D1B;stroke-width:2;stroke-miterlimit:10;" x1="337" y1="398" x2="337" y2="420"/>
			<line style="fill:none;stroke:#1D1D1B;stroke-width:2;stroke-miterlimit:10;" x1="341" y1="399" x2="341" y2="419"/>
			<line style="fill:none;stroke:#1D1D1B;stroke-width:2;stroke-miterlimit:10;" x1="346" y1="395" x2="346" y2="423"/>
			<line style="fill:none;stroke:#1D1D1B;stroke-width:2;stroke-miterlimit:10;" x1="350" y1="389" x2="350" y2="429"/>
			<line style="fill:none;stroke:#1D1D1B;stroke-width:2;stroke-miterlimit:10;" x1="354" y1="386" x2="354" y2="431"/>
			<line style="fill:none;stroke:#1D1D1B;stroke-width:2;stroke-miterlimit:10;" x1="359" y1="377" x2="359" y2="440"/>
			<line style="fill:none;stroke:#1D1D1B;stroke-width:2;stroke-miterlimit:10;" x1="363" y1="382" x2="363" y2="435"/>
			<line style="fill:none;stroke:#1D1D1B;stroke-width:2;stroke-miterlimit:10;" x1="367" y1="389" x2="367" y2="429"/>
			<line style="fill:none;stroke:#1D1D1B;stroke-width:2;stroke-miterlimit:10;" x1="372" y1="394" x2="372" y2="424"/>
			<line style="fill:none;stroke:#1D1D1B;stroke-width:2;stroke-miterlimit:10;" x1="376" y1="377" x2="376" y2="440"/>
			<line style="fill:none;stroke:#1D1D1B;stroke-width:2;stroke-miterlimit:10;" x1="380" y1="385" x2="380" y2="432"/>
			<line style="fill:none;stroke:#1D1D1B;stroke-width:2;stroke-miterlimit:10;" x1="385" y1="391" x2="385" y2="427"/>
			<line style="fill:none;stroke:#1D1D1B;stroke-width:2;stroke-miterlimit:10;" x1="389" y1="392" x2="389" y2="426"/>
			<line style="fill:none;stroke:#1D1D1B;stroke-width:2;stroke-miterlimit:10;" x1="393" y1="396" x2="393" y2="422"/>
			<line style="fill:none;stroke:#1D1D1B;stroke-width:2;stroke-miterlimit:10;" x1="398" y1="393" x2="398" y2="425"/>
			<line style="fill:none;stroke:#1D1D1B;stroke-width:2;stroke-miterlimit:10;" x1="402" y1="395" x2="402" y2="423"/>
			<line style="fill:none;stroke:#1D1D1B;stroke-width:2;stroke-miterlimit:10;" x1="406" y1="395" x2="406" y2="423"/>
			<line style="fill:none;stroke:#1D1D1B;stroke-width:2;stroke-miterlimit:10;" x1="411" y1="387" x2="411" y2="430"/>
			<line style="fill:none;stroke:#1D1D1B;stroke-width:2;stroke-miterlimit:10;" x1="415" y1="380" x2="415" y2="437"/>
			<line style="fill:none;stroke:#1D1D1B;stroke-width:2;stroke-miterlimit:10;" x1="419" y1="381" x2="419" y2="436"/>
			<line style="fill:none;stroke:#1D1D1B;stroke-width:2;stroke-miterlimit:10;" x1="424" y1="387" x2="424" y2="430"/>
			<line style="fill:none;stroke:#1D1D1B;stroke-width:2;stroke-miterlimit:10;" x1="428" y1="400" x2="428" y2="418"/>
		</g>
		<line style="fill:#777776;stroke:#1D1D1B;stroke-width:2;stroke-miterlimit:10;" x1="62" y1="409" x2="438" y2="409"/>
	</g>
	<g>
		<g>
			<g>
				<g>
					<line style="fill:#1D1D1B;" x1="73" y1="245" x2="73" y2="268"/>
				</g>
				<g>
					<path style="fill:#1D1D1B;" d="M73.739,245c1.02,0,2.082,1.331,2.361,2.957l2.927,17.086c0.279,1.626-0.843,2.957-2.493,2.957
						h-5.59c-1.65,0-2.772-1.331-2.493-2.957l2.927-17.086C71.657,246.331,72.719,245,73.739,245z"/>
				</g>
			</g>
		</g>
		<g>
			<g>
				<g>
					<line style="fill:#1D1D1B;" x1="84" y1="227" x2="84" y2="268"/>
				</g>
				<g>
					<path style="fill:#1D1D1B;" d="M84.362,227c1.02,0,1.983,1.344,2.141,2.986l3.367,35.027c0.158,1.643-1.063,2.986-2.713,2.986
						h-5.59c-1.65,0-2.871-1.344-2.713-2.986l3.367-35.027C82.379,228.344,83.343,227,84.362,227z"/>
				</g>
			</g>
		</g>
		<g>
			<g>
				<g>
					<line style="fill:#1D1D1B;" x1="95" y1="219" x2="95" y2="268"/>
				</g>
				<g>
					<path style="fill:#1D1D1B;" d="M94.986,219c1.02,0,1.962,1.346,2.095,2.99l3.46,43.02c0.132,1.645-1.109,2.99-2.759,2.99h-5.59
						c-1.65,0-2.892-1.346-2.759-2.99l3.46-43.02C93.024,220.346,93.967,219,94.986,219z"/>
				</g>
			</g>
		</g>
		<g>
			<g>
				<g>
					<line style="fill:#1D1D1B;" x1="105" y1="224" x2="105" y2="268"/>
				</g>
				<g>
					<path style="fill:#1D1D1B;" d="M105.61,224c1.02,0,1.975,1.345,2.121,2.988l3.406,38.023c0.147,1.644-1.083,2.988-2.732,2.988
						h-5.589c-1.65,0-2.879-1.345-2.732-2.988l3.406-38.023C103.636,225.345,104.591,224,105.61,224z"/>
				</g>
			</g>
		</g>
		<g>
			<g>
				<g>
					<line style="fill:#1D1D1B;" x1="116" y1="245" x2="116" y2="268"/>
				</g>
				<g>
					<path style="fill:#1D1D1B;" d="M116.234,245c1.02,0,2.082,1.331,2.361,2.957l2.927,17.086c0.279,1.626-0.843,2.957-2.493,2.957
						h-5.59c-1.65,0-2.772-1.331-2.493-2.957l2.928-17.086C114.153,246.331,115.215,245,116.234,245z"/>
				</g>
			</g>
		</g>
		<g>
			<g>
				<g>
					<line style="fill:#1D1D1B;" x1="126" y1="230" x2="126" y2="268"/>
				</g>
				<g>
					<path style="fill:#1D1D1B;" d="M126.858,230c1.02,0,1.993,1.343,2.164,2.984l3.322,32.032c0.17,1.642-1.041,2.984-2.691,2.984
						h-5.59c-1.65,0-2.861-1.343-2.69-2.984l3.322-32.032C124.866,231.343,125.839,230,126.858,230z"/>
				</g>
			</g>
		</g>
		<g>
			<g>
				<g>
					<line style="fill:#1D1D1B;" x1="137" y1="224" x2="137" y2="268"/>
				</g>
				<g>
					<path style="fill:#1D1D1B;" d="M137.482,224c1.02,0,1.975,1.345,2.122,2.988l3.406,38.023c0.147,1.644-1.083,2.988-2.732,2.988
						h-5.59c-1.65,0-2.879-1.345-2.732-2.988l3.406-38.023C135.508,225.345,136.463,224,137.482,224z"/>
				</g>
			</g>
		</g>
		<g>
			<g>
				<g>
					<line style="fill:#1D1D1B;" x1="148" y1="213" x2="148" y2="268"/>
				</g>
				<g>
					<path style="fill:#1D1D1B;" d="M148.106,213c1.02,0,1.951,1.347,2.068,2.992l3.512,49.016c0.118,1.645-1.136,2.992-2.786,2.992
						h-5.59c-1.65,0-2.903-1.347-2.786-2.992l3.513-49.016C146.156,214.347,147.087,213,148.106,213z"/>
				</g>
			</g>
		</g>
		<g>
			<g>
				<g>
					<line style="fill:#1D1D1B;" x1="158" y1="234" x2="158" y2="268"/>
				</g>
				<g>
					<path style="fill:#1D1D1B;" d="M158.73,234c1.02,0,2.009,1.341,2.199,2.98l3.251,28.04c0.19,1.64-1.005,2.98-2.655,2.98h-5.59
						c-1.65,0-2.845-1.341-2.655-2.98l3.251-28.04C156.721,235.341,157.711,234,158.73,234z"/>
				</g>
			</g>
		</g>
		<g>
			<g>
				<g>
					<line style="fill:#1D1D1B;" x1="169" y1="228" x2="169" y2="268"/>
				</g>
				<g>
					<path style="fill:#1D1D1B;" d="M169.354,228c1.02,0,1.986,1.343,2.148,2.985l3.354,34.029c0.162,1.642-1.056,2.985-2.706,2.985
						h-5.59c-1.65,0-2.868-1.344-2.706-2.985l3.353-34.029C167.368,229.343,168.334,228,169.354,228z"/>
				</g>
			</g>
		</g>
		<g>
			<g>
				<g>
					<line style="fill:#1D1D1B;" x1="179" y1="249" x2="179" y2="268"/>
				</g>
				<g>
					<path style="fill:#1D1D1B;" d="M179.978,249c1.02,0,2.128,1.322,2.463,2.938l2.723,13.125c0.335,1.615-0.741,2.938-2.391,2.938
						h-5.59c-1.65,0-2.726-1.322-2.391-2.938l2.722-13.125C177.851,250.322,178.958,249,179.978,249z"/>
				</g>
			</g>
		</g>
		<g>
			<g>
				<g>
					<line style="fill:#1D1D1B;" x1="190" y1="241" x2="190" y2="268"/>
				</g>
				<g>
					<path style="fill:#1D1D1B;" d="M190.602,241c1.02,0,2.048,1.336,2.287,2.969l3.074,21.063c0.239,1.633-0.917,2.969-2.566,2.969
						h-5.59c-1.65,0-2.805-1.336-2.567-2.969l3.075-21.063C188.554,242.336,189.582,241,190.602,241z"/>
				</g>
			</g>
		</g>
		<g>
			<g>
				<g>
					<line style="fill:#1D1D1B;" x1="201" y1="245" x2="201" y2="268"/>
				</g>
				<g>
					<path style="fill:#1D1D1B;" d="M201.227,245c1.02,0,2.081,1.331,2.36,2.957l2.928,17.086c0.279,1.626-0.843,2.957-2.493,2.957
						h-5.59c-1.65,0-2.772-1.331-2.493-2.957l2.927-17.086C199.144,246.331,200.206,245,201.227,245z"/>
				</g>
			</g>
		</g>
		<g>
			<g>
				<g>
					<line style="fill:#1D1D1B;" x1="211" y1="234" x2="211" y2="268"/>
				</g>
				<g>
					<path style="fill:#1D1D1B;" d="M211.851,234c1.02,0,2.009,1.341,2.199,2.98l3.251,28.04c0.19,1.64-1.005,2.98-2.655,2.98
						h-5.589c-1.65,0-2.845-1.341-2.655-2.98l3.251-28.04C209.841,235.341,210.831,234,211.851,234z"/>
				</g>
			</g>
		</g>
		<g>
			<g>
				<g>
					<line style="fill:#1D1D1B;" x1="222" y1="222" x2="222" y2="268"/>
				</g>
				<g>
					<path style="fill:#1D1D1B;" d="M222.475,222c1.02,0,1.969,1.345,2.109,2.989l3.429,40.021c0.141,1.645-1.094,2.989-2.744,2.989
						h-5.59c-1.65,0-2.885-1.345-2.744-2.989l3.429-40.021C220.505,223.345,221.455,222,222.475,222z"/>
				</g>
			</g>
		</g>
		<g>
			<g>
				<g>
					<line style="fill:#1D1D1B;" x1="233" y1="240" x2="233" y2="268"/>
				</g>
				<g>
					<path style="fill:#1D1D1B;" d="M233.099,240c1.02,0,2.042,1.337,2.271,2.971l3.105,22.059c0.23,1.634-0.932,2.971-2.582,2.971
						h-5.59c-1.65,0-2.812-1.337-2.582-2.971l3.105-22.059C231.057,241.337,232.079,240,233.099,240z"/>
				</g>
			</g>
		</g>
		<g>
			<g>
				<g>
					<line style="fill:#1D1D1B;" x1="243" y1="224" x2="243" y2="268"/>
				</g>
				<g>
					<path style="fill:#1D1D1B;" d="M243.722,224c1.02,0,1.975,1.345,2.122,2.988l3.406,38.023c0.147,1.644-1.082,2.988-2.732,2.988
						h-5.59c-1.65,0-2.879-1.345-2.732-2.988l3.406-38.023C241.748,225.345,242.703,224,243.722,224z"/>
				</g>
			</g>
		</g>
		<g>
			<g>
				<g>
					<line style="fill:#1D1D1B;" x1="254" y1="256" x2="254" y2="268"/>
				</g>
				<g>
					<path style="fill:#1D1D1B;" d="M254.346,256c1.021,0,2.275,1.282,2.79,2.851l2.069,6.299c0.515,1.568-0.414,2.851-2.064,2.851
						h-5.59c-1.649,0-2.578-1.282-2.064-2.851l2.069-6.299C252.071,257.282,253.326,256,254.346,256z"/>
				</g>
			</g>
		</g>
		<g>
			<g>
				<g>
					<line style="fill:#1D1D1B;" x1="264" y1="231" x2="264" y2="268"/>
				</g>
				<g>
					<path style="fill:#1D1D1B;" d="M264.971,231c1.02,0,1.996,1.342,2.171,2.983l3.306,31.034c0.175,1.641-1.032,2.983-2.683,2.983
						h-5.59c-1.65,0-2.857-1.343-2.683-2.983l3.307-31.034C262.974,232.342,263.95,231,264.971,231z"/>
				</g>
			</g>
		</g>
		<g>
			<g>
				<g>
					<line style="fill:#1D1D1B;" x1="275" y1="223" x2="275" y2="268"/>
				</g>
				<g>
					<path style="fill:#1D1D1B;" d="M275.594,223c1.021,0,1.973,1.345,2.116,2.989l3.417,39.023
						c0.143,1.644-1.088,2.988-2.738,2.988h-5.59c-1.65,0-2.882-1.345-2.738-2.988l3.418-39.023
						C273.622,224.345,274.574,223,275.594,223z"/>
				</g>
			</g>
		</g>
		<g>
			<g>
				<g>
					<line style="fill:#1D1D1B;" x1="286" y1="233" x2="286" y2="268"/>
				</g>
				<g>
					<path style="fill:#1D1D1B;" d="M286.219,233c1.02,0,2.005,1.341,2.189,2.981l3.269,29.038c0.185,1.64-1.014,2.981-2.664,2.981
						h-5.59c-1.65,0-2.849-1.342-2.664-2.981l3.27-29.038C284.213,234.341,285.198,233,286.219,233z"/>
				</g>
			</g>
		</g>
		<g>
			<g>
				<g>
					<line style="fill:#1D1D1B;" x1="296" y1="242" x2="296" y2="268"/>
				</g>
				<g>
					<path style="fill:#1D1D1B;" d="M296.842,242c1.02,0,2.057,1.335,2.304,2.966l3.042,20.068c0.247,1.631-0.9,2.966-2.551,2.966
						h-5.59c-1.65,0-2.798-1.335-2.551-2.966l3.042-20.068C294.785,243.335,295.822,242,296.842,242z"/>
				</g>
			</g>
		</g>
		<g>
			<g>
				<g>
					<line style="fill:#1D1D1B;" x1="307" y1="250" x2="307" y2="268"/>
				</g>
				<g>
					<path style="fill:#1D1D1B;" d="M307.466,250c1.02,0,2.144,1.318,2.496,2.931l2.657,12.139c0.353,1.612-0.708,2.931-2.358,2.931
						h-5.59c-1.65,0-2.711-1.318-2.358-2.931l2.657-12.139C305.322,251.318,306.446,250,307.466,250z"/>
				</g>
			</g>
		</g>
		<g>
			<g>
				<g>
					<line style="fill:#1D1D1B;" x1="318" y1="245" x2="318" y2="268"/>
				</g>
				<g>
					<path style="fill:#1D1D1B;" d="M318.09,245c1.02,0,2.082,1.331,2.361,2.957l2.927,17.086c0.279,1.626-0.843,2.957-2.493,2.957
						h-5.59c-1.65,0-2.772-1.331-2.493-2.957l2.927-17.086C316.008,246.331,317.07,245,318.09,245z"/>
				</g>
			</g>
		</g>
		<g>
			<g>
				<g>
					<line style="fill:#1D1D1B;" x1="328" y1="234" x2="328" y2="268"/>
				</g>
				<g>
					<path style="fill:#1D1D1B;" d="M328.714,234c1.02,0,2.01,1.341,2.2,2.98l3.249,28.04c0.19,1.64-1.004,2.98-2.654,2.98h-5.59
						c-1.65,0-2.845-1.341-2.654-2.98l3.249-28.04C326.704,235.341,327.694,234,328.714,234z"/>
				</g>
			</g>
		</g>
		<g>
			<g>
				<g>
					<line style="fill:#1D1D1B;" x1="339" y1="224" x2="339" y2="268"/>
				</g>
				<g>
					<path style="fill:#1D1D1B;" d="M339.338,224c1.02,0,1.975,1.345,2.122,2.988l3.405,38.023c0.148,1.644-1.082,2.988-2.732,2.988
						h-5.59c-1.65,0-2.88-1.345-2.733-2.988l3.405-38.023C337.363,225.345,338.318,224,339.338,224z"/>
				</g>
			</g>
		</g>
		<g>
			<g>
				<g>
					<line style="fill:#1D1D1B;" x1="349" y1="230" x2="349" y2="268"/>
				</g>
				<g>
					<path style="fill:#1D1D1B;" d="M349.962,230c1.02,0,1.994,1.343,2.164,2.984l3.321,32.032c0.17,1.642-1.04,2.984-2.691,2.984
						h-5.59c-1.65,0-2.86-1.343-2.69-2.984l3.321-32.032C347.968,231.343,348.942,230,349.962,230z"/>
				</g>
			</g>
		</g>
		<g>
			<g>
				<g>
					<line style="fill:#1D1D1B;" x1="360" y1="239" x2="360" y2="268"/>
				</g>
				<g>
					<path style="fill:#1D1D1B;" d="M360.586,239c1.02,0,2.036,1.338,2.259,2.973l3.132,23.055c0.223,1.635-0.945,2.973-2.596,2.973
						h-5.59c-1.65,0-2.818-1.338-2.596-2.973l3.132-23.055C358.55,240.338,359.566,239,360.586,239z"/>
				</g>
			</g>
		</g>
		<g>
			<g>
				<g>
					<line style="fill:#1D1D1B;" x1="371" y1="220" x2="371" y2="268"/>
				</g>
				<g>
					<path style="fill:#1D1D1B;" d="M371.21,220c1.02,0,1.965,1.346,2.1,2.99l3.45,42.02c0.135,1.645-1.105,2.99-2.755,2.99h-5.59
						c-1.65,0-2.89-1.346-2.755-2.99l3.45-42.02C369.245,221.346,370.19,220,371.21,220z"/>
				</g>
			</g>
		</g>
		<g>
			<g>
				<g>
					<g>
						<line style="fill:#1D1D1B;" x1="381" y1="240" x2="381" y2="268"/>
					</g>
					<g>
						<path style="fill:#1D1D1B;" d="M381.834,240c1.019,0,2.043,1.337,2.272,2.971l3.104,22.059
							c0.23,1.634-0.932,2.971-2.582,2.971h-5.59c-1.65,0-2.812-1.337-2.582-2.971l3.104-22.059
							C379.791,241.337,380.814,240,381.834,240z"/>
					</g>
				</g>
			</g>
			<g>
				<g>
					<g>
						<line style="fill:#1D1D1B;" x1="392" y1="251" x2="392" y2="268"/>
					</g>
					<g>
						<path style="fill:#1D1D1B;" d="M392.458,251c1.019,0,2.159,1.315,2.532,2.923l2.585,11.154
							c0.373,1.608-0.672,2.923-2.322,2.923h-5.59c-1.65,0-2.695-1.315-2.322-2.923l2.585-11.154
							C390.299,252.315,391.438,251,392.458,251z"/>
					</g>
				</g>
			</g>
			<g>
				<g>
					<g>
						<line style="fill:#1D1D1B;" x1="403" y1="235" x2="403" y2="268"/>
					</g>
					<g>
						<path style="fill:#1D1D1B;" d="M403.082,235c1.02,0,2.014,1.34,2.209,2.979l3.23,27.043c0.195,1.638-0.994,2.978-2.644,2.978
							h-5.59c-1.65,0-2.84-1.341-2.645-2.978l3.23-27.043C401.067,236.34,402.061,235,403.082,235z"/>
					</g>
				</g>
			</g>
			<g>
				<g>
					<g>
						<line style="fill:#1D1D1B;" x1="413" y1="247" x2="413" y2="268"/>
					</g>
					<g>
						<path style="fill:#1D1D1B;" d="M413.705,247c1.021,0,2.104,1.327,2.408,2.949l2.834,15.103
							c0.305,1.621-0.796,2.948-2.446,2.948h-5.59c-1.65,0-2.751-1.327-2.446-2.948l2.833-15.103
							C411.602,248.327,412.685,247,413.705,247z"/>
					</g>
				</g>
			</g>
			<g>
				<g>
					<g>
						<line style="fill:#1D1D1B;" x1="424" y1="248" x2="424" y2="268"/>
					</g>
					<g>
						<path style="fill:#1D1D1B;" d="M424.33,248c1.02,0,2.114,1.325,2.434,2.943l2.781,14.113c0.319,1.619-0.77,2.943-2.42,2.943
							h-5.59c-1.65,0-2.739-1.324-2.42-2.943l2.78-14.113C422.215,249.325,423.31,248,424.33,248z"/>
					</g>
				</g>
			</g>
			<line style="fill:#777776;stroke:#1D1D1B;stroke-width:2;stroke-miterlimit:10;" x1="62" y1="268" x2="438" y2="268"/>
			<rect x="74" y="265" style="fill:#1D1D1B;" width="353" height="3"/>
		</g>
	</g>
</g>
<g id="Designed_by_Freepik">
	<g style="opacity:0.3;">
		<g>
			<path style="fill:#1D1D1B;" d="M175.869,461.708c-0.14-0.17-0.34-0.25-0.61-0.25c-0.27,0-0.47,0.09-0.62,0.27
				c-0.14,0.19-0.21,0.46-0.21,0.82v2.6c-0.33-0.359-0.67-0.63-1.02-0.81c-0.35-0.17-0.77-0.26-1.28-0.26
				c-0.87,0-1.58,0.31-2.12,0.92c-0.53,0.62-0.8,1.47-0.8,2.57c0,0.52,0.07,1,0.2,1.449c0.14,0.45,0.33,0.841,0.6,1.17
				c0.26,0.33,0.57,0.58,0.93,0.761c0.35,0.18,0.74,0.27,1.16,0.27c0.32,0,0.62-0.05,0.88-0.14c0.27-0.08,0.52-0.21,0.75-0.38
				c0.23-0.17,0.46-0.391,0.7-0.66v0.17c0,0.32,0.08,0.57,0.23,0.75c0.16,0.17,0.36,0.26,0.6,0.26c0.24,0,0.44-0.09,0.6-0.25
				c0.15-0.17,0.23-0.42,0.23-0.76v-7.75C176.089,462.128,176.019,461.878,175.869,461.708z M174.099,468.878
				c-0.15,0.33-0.35,0.58-0.61,0.74c-0.25,0.16-0.54,0.24-0.84,0.24c-0.31,0-0.59-0.091-0.85-0.261c-0.26-0.17-0.46-0.42-0.61-0.75
				c-0.14-0.34-0.22-0.739-0.22-1.22c0-0.45,0.07-0.85,0.21-1.19c0.14-0.34,0.34-0.6,0.59-0.779c0.25-0.181,0.54-0.28,0.86-0.28
				c0.31,0,0.6,0.09,0.86,0.27c0.26,0.181,0.46,0.44,0.61,0.771c0.16,0.34,0.23,0.74,0.23,1.21
				C174.329,468.128,174.259,468.538,174.099,468.878z"/>
			<path style="fill:#1D1D1B;" d="M182.919,468.798c-0.17,0-0.3,0.04-0.39,0.12c-0.22,0.2-0.4,0.37-0.53,0.49
				c-0.14,0.12-0.29,0.229-0.45,0.34c-0.17,0.1-0.33,0.18-0.51,0.23c-0.17,0.051-0.36,0.07-0.57,0.07c-0.32,0-0.6-0.08-0.86-0.23
				c-0.26-0.15-0.47-0.381-0.63-0.69c-0.16-0.3-0.24-0.66-0.24-1.05h3.44c0.46,0,0.81-0.07,1.07-0.2c0.25-0.13,0.38-0.42,0.38-0.86
				c0-0.48-0.13-0.94-0.37-1.399c-0.24-0.46-0.61-0.84-1.11-1.13c-0.49-0.29-1.08-0.431-1.76-0.431c-0.53,0-1.01,0.08-1.44,0.25
				c-0.44,0.17-0.8,0.42-1.1,0.73c-0.29,0.32-0.52,0.7-0.67,1.149c-0.16,0.44-0.24,0.921-0.24,1.44c0,1.1,0.32,1.98,0.94,2.62
				c0.63,0.64,1.51,0.97,2.64,0.97c0.49,0,0.93-0.07,1.31-0.2c0.38-0.13,0.69-0.29,0.94-0.48c0.25-0.2,0.44-0.4,0.57-0.61
				c0.12-0.22,0.18-0.399,0.18-0.56c0-0.181-0.05-0.32-0.16-0.42C183.239,468.848,183.099,468.798,182.919,468.798z
				 M179.249,465.728c0.28-0.3,0.64-0.449,1.08-0.449c0.46,0,0.83,0.149,1.11,0.449c0.28,0.301,0.44,0.75,0.49,1.351h-3.19
				C178.799,466.488,178.969,466.038,179.249,465.728z"/>
			<path style="fill:#1D1D1B;" d="M189.919,468.058c-0.18-0.25-0.44-0.47-0.79-0.649c-0.34-0.19-0.79-0.351-1.33-0.48
				c-0.46-0.109-0.82-0.21-1.08-0.28c-0.27-0.079-0.47-0.18-0.63-0.3c-0.15-0.109-0.23-0.27-0.23-0.45c0-0.199,0.1-0.369,0.31-0.51
				c0.22-0.13,0.48-0.2,0.8-0.2c0.31,0,0.55,0.051,0.73,0.16c0.18,0.101,0.34,0.24,0.47,0.41c0.16,0.2,0.31,0.36,0.43,0.46
				c0.13,0.101,0.28,0.16,0.46,0.16c0.25,0,0.45-0.07,0.58-0.2c0.14-0.13,0.2-0.29,0.2-0.49c0-0.19-0.06-0.38-0.19-0.569
				c-0.12-0.19-0.31-0.37-0.55-0.53c-0.24-0.16-0.54-0.28-0.91-0.38c-0.36-0.09-0.77-0.14-1.22-0.14c-0.58,0-1.08,0.09-1.49,0.279
				c-0.41,0.19-0.72,0.44-0.93,0.75c-0.21,0.311-0.31,0.65-0.31,1c0,0.391,0.11,0.73,0.34,1c0.23,0.271,0.53,0.49,0.91,0.65
				c0.38,0.16,0.87,0.32,1.48,0.47c0.53,0.13,0.92,0.271,1.15,0.41c0.24,0.14,0.35,0.37,0.35,0.67c0,0.21-0.11,0.38-0.33,0.54
				c-0.23,0.16-0.52,0.24-0.87,0.24c-0.43,0-0.78-0.08-1.03-0.23c-0.25-0.16-0.46-0.39-0.65-0.71c-0.08-0.16-0.18-0.29-0.28-0.38
				c-0.1-0.09-0.24-0.13-0.42-0.13c-0.21,0-0.39,0.07-0.52,0.2c-0.14,0.14-0.21,0.31-0.21,0.5c0,0.29,0.11,0.58,0.32,0.87
				c0.22,0.29,0.55,0.529,1,0.729c0.45,0.19,0.99,0.29,1.62,0.29c0.66,0,1.22-0.09,1.68-0.27c0.47-0.181,0.82-0.44,1.05-0.79
				c0.24-0.34,0.35-0.761,0.35-1.24C190.179,468.598,190.099,468.308,189.919,468.058z"/>
			<path style="fill:#1D1D1B;" d="M192.599,464.338c-0.17-0.18-0.38-0.27-0.64-0.27c-0.26,0-0.47,0.09-0.63,0.27
				c-0.16,0.17-0.24,0.43-0.24,0.78v5.029c0,0.341,0.08,0.6,0.24,0.79c0.16,0.181,0.37,0.28,0.63,0.28c0.26,0,0.47-0.09,0.64-0.27
				c0.17-0.181,0.25-0.45,0.25-0.801v-5.079C192.849,464.758,192.769,464.508,192.599,464.338z M192.579,461.748
				c-0.17-0.14-0.37-0.22-0.6-0.22c-0.24,0-0.44,0.08-0.62,0.25c-0.18,0.159-0.27,0.359-0.27,0.609c0,0.28,0.09,0.49,0.26,0.641
				c0.18,0.149,0.39,0.22,0.63,0.22c0.24,0,0.44-0.07,0.61-0.22c0.17-0.16,0.26-0.37,0.26-0.641
				C192.849,462.108,192.759,461.897,192.579,461.748z"/>
			<path style="fill:#1D1D1B;" d="M200.379,464.397c-0.11-0.22-0.34-0.329-0.68-0.329c-0.23,0-0.43,0.09-0.58,0.25
				c-0.15,0.17-0.22,0.409-0.22,0.71v0.239c-0.31-0.409-0.65-0.71-1.02-0.899c-0.36-0.19-0.79-0.29-1.29-0.29
				c-0.42,0-0.8,0.08-1.15,0.229c-0.35,0.141-0.65,0.36-0.92,0.66c-0.26,0.29-0.47,0.65-0.61,1.07c-0.15,0.43-0.22,0.899-0.22,1.43
				c0,0.71,0.12,1.33,0.36,1.87c0.23,0.54,0.57,0.96,1.01,1.26c0.44,0.311,0.95,0.46,1.54,0.46c0.49,0,0.91-0.1,1.27-0.3
				c0.35-0.2,0.66-0.49,0.93-0.86c-0.01,0.57-0.02,0.99-0.04,1.25c-0.01,0.261-0.07,0.5-0.17,0.73c-0.1,0.23-0.28,0.4-0.53,0.53
				c-0.25,0.13-0.6,0.189-1.06,0.189c-0.22,0-0.42-0.02-0.59-0.06c-0.17-0.04-0.32-0.101-0.44-0.19c-0.12-0.08-0.24-0.18-0.34-0.3
				c-0.1-0.12-0.2-0.24-0.29-0.35c-0.19-0.23-0.42-0.34-0.68-0.34c-0.2,0-0.38,0.069-0.52,0.199c-0.15,0.141-0.22,0.311-0.22,0.53
				c0,0.28,0.13,0.55,0.38,0.82c0.26,0.27,0.63,0.489,1.1,0.66c0.48,0.17,1.02,0.25,1.63,0.25c0.66,0,1.21-0.061,1.65-0.2
				c0.45-0.13,0.81-0.33,1.08-0.61c0.28-0.27,0.48-0.62,0.6-1.04c0.12-0.42,0.19-0.92,0.19-1.51v-5.1
				C200.549,464.938,200.489,464.618,200.379,464.397z M198.589,468.808c-0.16,0.311-0.37,0.551-0.63,0.7
				c-0.26,0.16-0.54,0.24-0.83,0.24c-0.49,0-0.9-0.18-1.21-0.55c-0.31-0.36-0.46-0.9-0.46-1.61c0-0.71,0.15-1.25,0.45-1.63
				c0.3-0.38,0.7-0.58,1.21-0.58c0.51,0,0.93,0.2,1.24,0.6c0.32,0.4,0.48,0.96,0.48,1.681
				C198.839,468.108,198.749,468.488,198.589,468.808z"/>
			<path style="fill:#1D1D1B;" d="M207.899,465.918c-0.03-0.24-0.11-0.48-0.22-0.69c-0.18-0.369-0.45-0.649-0.82-0.859
				c-0.36-0.2-0.78-0.3-1.24-0.3c-0.48,0-0.9,0.1-1.27,0.29c-0.1,0.05-0.19,0.109-0.29,0.18c-0.25,0.18-0.49,0.42-0.72,0.72v-0.22
				c0-0.21-0.04-0.391-0.11-0.53c-0.08-0.149-0.18-0.26-0.3-0.33c-0.13-0.069-0.27-0.109-0.42-0.109c-0.25,0-0.45,0.079-0.6,0.25
				c-0.15,0.159-0.22,0.409-0.22,0.75v5.079c0,0.341,0.08,0.6,0.25,0.79c0.16,0.181,0.37,0.28,0.62,0.28c0.26,0,0.48-0.09,0.64-0.27
				c0.17-0.181,0.25-0.45,0.25-0.801v-2.199c0-0.721,0.04-1.21,0.13-1.471c0.12-0.33,0.31-0.58,0.56-0.77
				c0.26-0.19,0.55-0.28,0.86-0.28c0.48,0,0.8,0.15,0.96,0.46c0.16,0.311,0.24,0.75,0.24,1.33v2.93c0,0.341,0.09,0.6,0.25,0.79
				c0.16,0.181,0.37,0.28,0.64,0.28c0.25,0,0.46-0.09,0.62-0.27c0.17-0.181,0.25-0.45,0.25-0.801v-3.27
				C207.959,466.488,207.939,466.168,207.899,465.918z"/>
			<path style="fill:#1D1D1B;" d="M214.769,468.798c-0.17,0-0.29,0.04-0.38,0.12c-0.22,0.2-0.4,0.37-0.54,0.49
				c-0.14,0.12-0.29,0.229-0.45,0.34c-0.16,0.1-0.33,0.18-0.5,0.23c-0.17,0.051-0.35,0.07-0.55,0.07h-0.01c-0.01,0-0.01,0-0.02,0
				c-0.31,0-0.6-0.08-0.86-0.23c-0.26-0.15-0.47-0.381-0.62-0.69c-0.03-0.06-0.06-0.11-0.08-0.17v-0.01
				c-0.11-0.261-0.16-0.561-0.17-0.87h3.44c0.46,0,0.82-0.07,1.07-0.2s0.38-0.42,0.38-0.86c0-0.48-0.12-0.94-0.37-1.399
				c-0.24-0.46-0.61-0.84-1.1-1.13c-0.49-0.29-1.08-0.431-1.77-0.431c-0.53,0-1.01,0.08-1.44,0.25c-0.43,0.17-0.8,0.42-1.09,0.73
				c-0.3,0.32-0.53,0.7-0.68,1.149c-0.15,0.44-0.23,0.921-0.23,1.44c0,1.1,0.31,1.98,0.94,2.62c0.62,0.64,1.5,0.97,2.63,0.97
				c0.49,0,0.93-0.07,1.31-0.2c0.01,0,0.03-0.01,0.04-0.01c0.36-0.13,0.66-0.29,0.91-0.47c0.25-0.2,0.43-0.4,0.56-0.61
				c0.12-0.22,0.19-0.399,0.19-0.56c0-0.181-0.06-0.32-0.17-0.42C215.099,468.848,214.949,468.798,214.769,468.798z
				 M211.109,465.728c0.28-0.3,0.64-0.449,1.07-0.449c0.46,0,0.83,0.149,1.11,0.449c0.29,0.301,0.45,0.75,0.49,1.351h-3.19
				C210.649,466.488,210.819,466.038,211.109,465.728z"/>
			<path style="fill:#1D1D1B;" d="M222.639,461.708c-0.14-0.17-0.35-0.25-0.61-0.25c-0.271,0-0.48,0.09-0.62,0.27
				c-0.14,0.19-0.22,0.46-0.22,0.82v2.6c-0.33-0.359-0.66-0.63-1.01-0.81c-0.35-0.17-0.78-0.26-1.28-0.26
				c-0.88,0-1.58,0.31-2.12,0.92c-0.54,0.62-0.81,1.47-0.81,2.57c0,0.52,0.07,1,0.21,1.449c0.13,0.45,0.33,0.841,0.59,1.17
				c0.26,0.33,0.57,0.58,0.93,0.761c0.36,0.18,0.75,0.27,1.17,0.27c0.32,0,0.61-0.05,0.88-0.14c0.27-0.08,0.52-0.21,0.75-0.38
				c0.23-0.17,0.46-0.391,0.69-0.66v0.17c0,0.32,0.08,0.57,0.24,0.75c0.16,0.17,0.35,0.26,0.6,0.26c0.24,0,0.44-0.09,0.59-0.25
				c0.16-0.17,0.24-0.42,0.24-0.76v-7.75C222.859,462.128,222.779,461.878,222.639,461.708z M220.869,468.878
				c-0.15,0.33-0.36,0.58-0.61,0.74c-0.26,0.16-0.54,0.24-0.85,0.24c-0.3,0-0.58-0.091-0.84-0.261c-0.26-0.17-0.46-0.42-0.61-0.75
				c-0.15-0.34-0.22-0.739-0.22-1.22c0-0.45,0.07-0.85,0.21-1.19c0.14-0.34,0.33-0.6,0.59-0.779c0.25-0.181,0.54-0.28,0.86-0.28
				c0.31,0,0.59,0.09,0.85,0.27c0.26,0.181,0.47,0.44,0.62,0.771c0.15,0.34,0.23,0.74,0.23,1.21
				C221.099,468.128,221.019,468.538,220.869,468.878z"/>
			<path style="fill:#1D1D1B;" d="M233.219,465.698c-0.24-0.521-0.58-0.92-1.02-1.2c-0.44-0.28-0.95-0.42-1.54-0.42
				c-0.5,0-0.93,0.1-1.27,0.28c-0.35,0.18-0.68,0.44-1.01,0.789v-2.689c0-0.32-0.08-0.57-0.22-0.74c-0.15-0.18-0.36-0.26-0.63-0.26
				c-0.25,0-0.45,0.09-0.6,0.27c-0.14,0.181-0.21,0.45-0.21,0.811v7.67c0,0.33,0.07,0.58,0.22,0.75c0.15,0.17,0.34,0.26,0.59,0.26
				s0.45-0.09,0.61-0.26c0.16-0.17,0.24-0.42,0.24-0.75v-0.17c0.19,0.22,0.35,0.39,0.46,0.5c0.12,0.109,0.26,0.22,0.43,0.33
				c0.17,0.1,0.37,0.189,0.61,0.25c0.24,0.06,0.49,0.1,0.76,0.1c0.44,0,0.85-0.09,1.22-0.27c0.36-0.181,0.68-0.431,0.93-0.761
				c0.26-0.319,0.46-0.71,0.59-1.149c0.14-0.45,0.2-0.93,0.2-1.47C233.579,466.848,233.459,466.228,233.219,465.698z
				 M231.339,469.278c-0.32,0.39-0.7,0.58-1.14,0.58c-0.52,0-0.94-0.19-1.26-0.57c-0.32-0.37-0.48-0.91-0.48-1.61
				c0-0.47,0.08-0.89,0.23-1.229c0.15-0.351,0.35-0.61,0.61-0.79c0.27-0.181,0.56-0.28,0.9-0.28c0.32,0,0.61,0.1,0.85,0.28
				c0.25,0.18,0.44,0.439,0.57,0.77c0.13,0.34,0.2,0.74,0.2,1.2C231.819,468.348,231.659,468.897,231.339,469.278z"/>
			<path style="fill:#1D1D1B;" d="M240.009,464.458c-0.07-0.12-0.16-0.21-0.279-0.28c-0.121-0.069-0.25-0.109-0.381-0.109
				c-0.189,0-0.33,0.029-0.43,0.1c-0.1,0.06-0.199,0.19-0.29,0.37c-0.09,0.189-0.19,0.439-0.3,0.77l-1.41,4.021l-1.489-4.33
				c-0.101-0.3-0.21-0.53-0.341-0.69c-0.13-0.16-0.32-0.239-0.57-0.239c-0.15,0-0.29,0.04-0.42,0.119
				c-0.14,0.07-0.25,0.181-0.32,0.31c-0.08,0.12-0.12,0.26-0.12,0.41c0,0.149,0.07,0.37,0.2,0.689l2.161,5.44l-0.16,0.399
				c-0.12,0.28-0.221,0.5-0.32,0.65c-0.09,0.15-0.19,0.25-0.31,0.31c-0.11,0.061-0.27,0.091-0.47,0.091
				c-0.09,0-0.18-0.011-0.29-0.04c-0.09-0.021-0.19-0.04-0.28-0.04c-0.24,0-0.42,0.06-0.54,0.17c-0.13,0.109-0.19,0.26-0.19,0.46
				c0,0.3,0.13,0.5,0.39,0.62c0.26,0.109,0.64,0.16,1.16,0.16c0.521,0,0.94-0.08,1.25-0.24c0.32-0.16,0.57-0.391,0.75-0.69
				c0.19-0.3,0.39-0.71,0.58-1.24l2.301-6c0.049-0.159,0.1-0.31,0.14-0.46c0.04-0.149,0.06-0.27,0.079-0.35
				C240.108,464.708,240.079,464.578,240.009,464.458z"/>
		</g>
		<g>
			<path style="fill:#1D1D1B;" d="M261.319,464.221h0.419v-0.527c0-0.552,0.067-0.987,0.207-1.313
				c0.139-0.324,0.377-0.561,0.71-0.708c0.332-0.148,0.788-0.222,1.367-0.222c1.029,0,1.54,0.249,1.54,0.755
				c0,0.162-0.054,0.302-0.163,0.417c-0.104,0.115-0.232,0.174-0.378,0.174c-0.067,0-0.188-0.013-0.357-0.04
				c-0.161-0.022-0.307-0.038-0.422-0.038c-0.317,0-0.52,0.096-0.614,0.281c-0.086,0.186-0.132,0.453-0.132,0.803v0.418h0.429
				c0.672,0,1.004,0.201,1.004,0.607c0,0.284-0.086,0.468-0.267,0.545c-0.177,0.078-0.423,0.116-0.737,0.116h-0.429v4.656
				c0,0.347-0.082,0.61-0.25,0.792c-0.164,0.185-0.376,0.275-0.639,0.275c-0.249,0-0.455-0.091-0.622-0.275
				c-0.166-0.182-0.247-0.445-0.247-0.792v-4.656h-0.484c-0.263,0-0.462-0.057-0.605-0.178c-0.142-0.115-0.213-0.271-0.213-0.459
				C260.435,464.43,260.73,464.221,261.319,464.221L261.319,464.221z"/>
			<path style="fill:#1D1D1B;" d="M267.072,468.677v1.469c0,0.355-0.09,0.623-0.253,0.8c-0.168,0.18-0.379,0.268-0.636,0.268
				c-0.259,0-0.466-0.089-0.628-0.271c-0.16-0.179-0.244-0.444-0.244-0.796v-4.895c0-0.79,0.284-1.186,0.854-1.186
				c0.294,0,0.503,0.092,0.633,0.276c0.128,0.186,0.199,0.457,0.215,0.819c0.208-0.362,0.423-0.634,0.643-0.819
				c0.225-0.185,0.517-0.276,0.888-0.276c0.372,0,0.727,0.092,1.074,0.276c0.349,0.186,0.522,0.432,0.522,0.735
				c0,0.214-0.075,0.394-0.221,0.53c-0.149,0.142-0.308,0.211-0.479,0.211c-0.067,0-0.225-0.043-0.47-0.122
				c-0.247-0.077-0.467-0.117-0.652-0.117c-0.258,0-0.47,0.069-0.632,0.202c-0.164,0.139-0.291,0.337-0.382,0.6
				c-0.088,0.268-0.148,0.587-0.185,0.952C267.088,467.701,267.072,468.149,267.072,468.677L267.072,468.677z"/>
			<path style="fill:#1D1D1B;" d="M275.889,468.798c-0.16,0-0.29,0.04-0.38,0.12c-0.22,0.2-0.399,0.37-0.54,0.479
				c-0.14,0.131-0.279,0.24-0.449,0.341c-0.16,0.109-0.33,0.189-0.5,0.229c-0.181,0.06-0.37,0.08-0.58,0.08
				c-0.311,0-0.601-0.08-0.86-0.23c-0.26-0.16-0.47-0.391-0.63-0.69c-0.15-0.3-0.23-0.66-0.24-1.06h3.44
				c0.46,0,0.819-0.061,1.069-0.19c0.25-0.14,0.38-0.42,0.38-0.86c0-0.48-0.12-0.94-0.37-1.409c-0.239-0.461-0.609-0.83-1.1-1.12
				c-0.49-0.29-1.08-0.431-1.77-0.431c-0.53,0-1.011,0.08-1.44,0.25c-0.43,0.17-0.8,0.41-1.09,0.73c-0.3,0.32-0.53,0.7-0.68,1.14
				c-0.16,0.45-0.23,0.931-0.23,1.45c0,1.1,0.31,1.98,0.94,2.62c0.619,0.64,1.5,0.96,2.63,0.96c0.489,0,0.93-0.061,1.31-0.19
				c0.38-0.13,0.7-0.29,0.95-0.48c0.25-0.2,0.44-0.4,0.57-0.62c0.12-0.21,0.18-0.39,0.18-0.55c0-0.181-0.06-0.32-0.17-0.42
				C276.219,468.848,276.069,468.798,275.889,468.798z M272.228,465.728c0.28-0.3,0.641-0.449,1.07-0.449
				c0.471,0,0.83,0.149,1.12,0.449c0.28,0.29,0.44,0.74,0.48,1.341h-3.19C271.77,466.478,271.939,466.038,272.228,465.728z"/>
			<path style="fill:#1D1D1B;" d="M283.199,468.798c-0.16,0-0.29,0.04-0.38,0.12c-0.221,0.2-0.4,0.37-0.54,0.479
				c-0.141,0.131-0.28,0.24-0.45,0.341c-0.16,0.109-0.33,0.189-0.51,0.229c-0.17,0.06-0.36,0.08-0.57,0.08
				c-0.31,0-0.6-0.08-0.86-0.23c-0.26-0.16-0.47-0.391-0.619-0.69c-0.16-0.3-0.24-0.66-0.25-1.06h3.44c0.46,0,0.82-0.061,1.07-0.19
				c0.25-0.14,0.38-0.42,0.38-0.86c0-0.48-0.12-0.94-0.37-1.409c-0.24-0.461-0.61-0.83-1.1-1.12c-0.5-0.29-1.08-0.431-1.771-0.431
				c-0.53,0-1.01,0.08-1.44,0.25c-0.439,0.17-0.8,0.41-1.09,0.73c-0.3,0.32-0.529,0.7-0.68,1.14c-0.16,0.45-0.24,0.931-0.24,1.45
				c0,1.1,0.32,1.98,0.95,2.62c0.62,0.64,1.5,0.96,2.63,0.96c0.49,0,0.93-0.061,1.311-0.19c0.38-0.13,0.699-0.29,0.949-0.48
				c0.25-0.2,0.44-0.4,0.56-0.62c0.13-0.21,0.18-0.39,0.18-0.55c0-0.181-0.05-0.32-0.16-0.42
				C283.529,468.848,283.379,468.798,283.199,468.798z M279.529,465.728c0.29-0.3,0.649-0.449,1.08-0.449
				c0.46,0,0.83,0.149,1.119,0.449c0.28,0.29,0.44,0.74,0.481,1.341h-3.19C279.079,466.478,279.249,466.038,279.529,465.728z"/>
			<path style="fill:#1D1D1B;" d="M291.509,467.418c-0.02-0.65-0.149-1.21-0.38-1.7c-0.27-0.53-0.63-0.94-1.08-1.22
				c-0.46-0.28-0.96-0.42-1.5-0.42c-0.45,0-0.85,0.1-1.2,0.29c-0.359,0.189-0.71,0.49-1.04,0.899v-0.21
				c0-0.33-0.069-0.569-0.229-0.739c-0.16-0.171-0.36-0.25-0.61-0.25s-0.449,0.079-0.6,0.239c-0.15,0.17-0.22,0.42-0.22,0.761v7.579
				c0,0.391,0.06,0.671,0.159,0.881c0.11,0.19,0.33,0.29,0.66,0.29c0.561,0,0.84-0.391,0.84-1.16v-2.63
				c0.181,0.22,0.36,0.409,0.551,0.569c0.14,0.12,0.279,0.221,0.43,0.311c0.34,0.2,0.76,0.3,1.26,0.3c0.42,0,0.811-0.08,1.17-0.24
				c0.37-0.17,0.681-0.41,0.95-0.71c0.26-0.31,0.47-0.689,0.63-1.14c0.15-0.45,0.221-0.95,0.221-1.49
				C291.52,467.558,291.52,467.488,291.509,467.418z M289.529,468.838c-0.15,0.34-0.34,0.59-0.601,0.76
				c-0.239,0.17-0.52,0.261-0.81,0.261c-0.06,0-0.12,0-0.17-0.021c-0.42-0.03-0.771-0.229-1.06-0.57
				c-0.33-0.38-0.489-0.93-0.489-1.63c0-0.74,0.159-1.3,0.5-1.689c0.329-0.38,0.739-0.57,1.22-0.57c0.31,0,0.59,0.09,0.84,0.27
				c0.25,0.181,0.44,0.431,0.58,0.771c0.15,0.33,0.22,0.729,0.22,1.19c0,0.43-0.06,0.8-0.19,1.109
				C289.559,468.758,289.549,468.798,289.529,468.838z"/>
			<path style="fill:#1D1D1B;" d="M293.909,464.328c-0.17-0.181-0.38-0.26-0.64-0.26c-0.25,0-0.461,0.079-0.62,0.26
				c-0.16,0.18-0.25,0.44-0.25,0.79v5.029c0,0.341,0.09,0.6,0.25,0.79c0.159,0.181,0.37,0.271,0.62,0.271
				c0.26,0,0.47-0.08,0.64-0.271c0.17-0.18,0.25-0.44,0.25-0.79v-5.079C294.159,464.748,294.079,464.508,293.909,464.328z
				 M293.899,461.748c-0.181-0.15-0.38-0.22-0.61-0.22c-0.23,0-0.44,0.08-0.62,0.239c-0.18,0.16-0.27,0.37-0.27,0.62
				c0,0.271,0.09,0.48,0.27,0.63c0.17,0.15,0.38,0.23,0.62,0.23c0.24,0,0.439-0.08,0.62-0.23c0.17-0.149,0.25-0.359,0.25-0.63
				C294.159,462.108,294.069,461.888,293.899,461.748z"/>
			<path style="fill:#1D1D1B;" d="M299.827,470.41l-1.548-2.552l-0.954,0.9v1.399c0,0.339-0.09,0.598-0.269,0.779
				c-0.175,0.185-0.384,0.275-0.614,0.275c-0.271,0-0.484-0.089-0.638-0.271c-0.153-0.179-0.232-0.444-0.232-0.796v-7.498
				c0-0.388,0.077-0.685,0.224-0.89c0.151-0.207,0.369-0.307,0.646-0.307c0.271,0,0.483,0.093,0.643,0.279
				c0.158,0.183,0.239,0.456,0.239,0.814v4.265l1.977-2.075c0.245-0.255,0.429-0.435,0.56-0.527
				c0.128-0.095,0.283-0.142,0.467-0.142c0.221,0,0.402,0.07,0.553,0.209c0.143,0.14,0.217,0.316,0.217,0.524
				c0,0.257-0.239,0.603-0.715,1.031l-0.933,0.855l1.802,2.835c0.131,0.213,0.229,0.368,0.287,0.478
				c0.058,0.107,0.088,0.217,0.088,0.313c0,0.28-0.077,0.498-0.23,0.661c-0.152,0.161-0.354,0.24-0.601,0.24
				c-0.214,0-0.382-0.055-0.497-0.174C300.185,470.922,300.024,470.712,299.827,470.41L299.827,470.41z"/>
			<path style="fill:#1D1D1B;" d="M303.646,471.213c-0.265,0-0.492-0.086-0.686-0.258c-0.192-0.169-0.291-0.411-0.291-0.722
				c0-0.262,0.094-0.487,0.278-0.675c0.186-0.189,0.412-0.283,0.684-0.283c0.268,0,0.498,0.094,0.692,0.279
				c0.19,0.187,0.286,0.414,0.286,0.679c0,0.307-0.097,0.547-0.286,0.718C304.129,471.127,303.903,471.213,303.646,471.213
				L303.646,471.213z"/>
			<path style="fill:#1D1D1B;" d="M312.389,469.037c0,0.218-0.066,0.453-0.197,0.701c-0.13,0.251-0.331,0.486-0.601,0.712
				c-0.268,0.225-0.604,0.408-1.013,0.544c-0.407,0.137-0.868,0.208-1.376,0.208c-1.089,0-1.938-0.318-2.547-0.949
				c-0.607-0.635-0.912-1.484-0.912-2.549c0-0.723,0.138-1.359,0.419-1.914c0.276-0.552,0.681-0.98,1.208-1.283
				c0.527-0.304,1.162-0.454,1.894-0.454c0.456,0,0.873,0.066,1.255,0.2c0.38,0.132,0.7,0.306,0.966,0.515
				c0.262,0.213,0.465,0.435,0.604,0.672c0.14,0.238,0.208,0.462,0.208,0.669c0,0.209-0.077,0.388-0.232,0.534
				c-0.159,0.145-0.35,0.22-0.568,0.22c-0.148,0-0.27-0.039-0.367-0.113c-0.097-0.076-0.206-0.196-0.324-0.367
				c-0.215-0.324-0.438-0.57-0.675-0.731c-0.232-0.164-0.528-0.245-0.89-0.245c-0.517,0-0.939,0.202-1.257,0.608
				c-0.316,0.403-0.477,0.962-0.477,1.663c0,0.331,0.043,0.637,0.124,0.913c0.079,0.276,0.197,0.513,0.353,0.708
				c0.156,0.194,0.342,0.342,0.561,0.443c0.22,0.103,0.461,0.152,0.721,0.152c0.353,0,0.655-0.081,0.905-0.244
				c0.255-0.163,0.477-0.411,0.669-0.747c0.107-0.197,0.222-0.351,0.345-0.463c0.124-0.111,0.277-0.169,0.458-0.169
				c0.215,0,0.393,0.083,0.533,0.245C312.316,468.679,312.389,468.854,312.389,469.037L312.389,469.037z"/>
			<path style="fill:#1D1D1B;" d="M319.728,466.188c-0.159-0.43-0.39-0.81-0.699-1.13c-0.311-0.319-0.681-0.56-1.11-0.729
				c-0.44-0.181-0.92-0.26-1.45-0.26c-0.529,0-1.01,0.079-1.439,0.25c-0.431,0.17-0.801,0.409-1.11,0.73
				c-0.3,0.31-0.54,0.69-0.7,1.13c-0.16,0.44-0.24,0.931-0.24,1.46c0,0.53,0.08,1.01,0.231,1.45c0.17,0.43,0.4,0.81,0.72,1.13
				c0.3,0.32,0.681,0.57,1.101,0.74c0.42,0.17,0.899,0.26,1.439,0.26c0.53,0,1.01-0.09,1.45-0.26c0.42-0.17,0.79-0.41,1.101-0.73
				c0.31-0.319,0.55-0.699,0.709-1.14c0.16-0.44,0.24-0.93,0.24-1.45C319.969,467.108,319.889,466.628,319.728,466.188z
				 M317.739,469.298c-0.32,0.41-0.74,0.61-1.271,0.61c-0.359,0-0.66-0.09-0.92-0.271c-0.26-0.189-0.46-0.45-0.6-0.8
				c-0.141-0.34-0.21-0.74-0.21-1.2s0.069-0.87,0.21-1.22c0.14-0.34,0.34-0.61,0.609-0.79c0.261-0.17,0.56-0.26,0.91-0.26
				c0.53,0,0.95,0.2,1.271,0.6c0.31,0.4,0.47,0.96,0.47,1.67S318.049,468.897,317.739,469.298z"/>
			<path style="fill:#1D1D1B;" d="M326.677,467.77v2.336c0,0.371-0.082,0.645-0.251,0.832c-0.169,0.185-0.387,0.276-0.662,0.276
				c-0.267,0-0.484-0.092-0.645-0.276c-0.168-0.188-0.252-0.461-0.252-0.832v-2.8c0-0.442-0.015-0.787-0.043-1.033
				c-0.031-0.239-0.114-0.443-0.246-0.598c-0.133-0.16-0.345-0.238-0.631-0.238c-0.576,0-0.953,0.196-1.136,0.597
				c-0.182,0.391-0.275,0.958-0.275,1.699v2.373c0,0.364-0.083,0.642-0.245,0.829c-0.169,0.185-0.385,0.279-0.654,0.279
				c-0.268,0-0.485-0.094-0.655-0.279c-0.17-0.188-0.255-0.465-0.255-0.829v-5.028c0-0.331,0.076-0.583,0.228-0.753
				c0.155-0.174,0.356-0.259,0.602-0.259c0.242,0,0.441,0.084,0.605,0.241c0.16,0.161,0.24,0.384,0.24,0.667v0.166
				c0.308-0.362,0.634-0.631,0.978-0.8c0.351-0.177,0.733-0.262,1.161-0.262c0.441,0,0.82,0.089,1.137,0.264
				c0.318,0.177,0.579,0.444,0.787,0.798c0.298-0.358,0.616-0.625,0.955-0.8c0.339-0.175,0.714-0.262,1.127-0.262
				c0.479,0,0.896,0.097,1.242,0.284c0.346,0.189,0.605,0.46,0.778,0.81c0.149,0.32,0.224,0.82,0.224,1.503v3.431
				c0,0.371-0.083,0.645-0.249,0.832c-0.167,0.185-0.39,0.276-0.664,0.276c-0.268,0-0.483-0.094-0.653-0.279
				c-0.17-0.188-0.255-0.465-0.255-0.829v-2.956c0-0.378-0.017-0.68-0.047-0.906c-0.032-0.229-0.12-0.421-0.26-0.574
				c-0.144-0.154-0.359-0.232-0.646-0.232c-0.232,0-0.452,0.072-0.66,0.208c-0.208,0.135-0.371,0.323-0.488,0.551
				C326.743,466.492,326.677,467.018,326.677,467.77L326.677,467.77z"/>
		</g>
		<g>
			<path style="fill:#1D1D1B;" d="M244.872,467.215c-0.002-0.003-0.002-0.006-0.002-0.012
				C244.87,467.209,244.87,467.212,244.872,467.215z"/>
			<path style="fill:#1D1D1B;" d="M244.961,467.777c0.001,0,0.001,0,0.002,0c-0.034-0.16-0.06-0.319-0.081-0.476
				C244.903,467.46,244.929,467.619,244.961,467.777z"/>
			<path style="fill:#1D1D1B;" d="M245.542,469.408c-0.004-0.007-0.007-0.015-0.012-0.022
				C245.535,469.394,245.538,469.401,245.542,469.408z"/>
			<path style="fill:#1D1D1B;" d="M245.487,469.3c-0.016-0.03-0.03-0.061-0.045-0.091C245.457,469.24,245.472,469.27,245.487,469.3z
				"/>
			<path style="fill:#1D1D1B;" d="M245.124,468.405c0.086,0.271,0.189,0.534,0.311,0.785c-0.123-0.256-0.225-0.52-0.309-0.785
				C245.126,468.405,245.125,468.405,245.124,468.405z"/>
			<path style="fill:#1D1D1B;" d="M251.675,460.481c0.34,0,0.59,0.026,0.878,0.075l0.081-0.517c0,0-0.794-0.244-1.837-0.159
				l-0.082-0.281c0.324-0.068,0.567-0.356,0.567-0.701c0-0.395-0.32-0.714-0.716-0.714c-0.396,0-0.716,0.319-0.716,0.714
				c0,0.345,0.243,0.633,0.566,0.701l0.091,0.313c-1.107,0.152-1.989,0.585-1.989,0.585l0.156,0.478
				c0.67-0.224,1.252-0.358,1.778-0.416C250.97,460.505,251.358,460.481,251.675,460.481z"/>
			<path style="fill:#1D1D1B;" d="M245.529,463.096l0.004-0.005c0.026-0.034,0.052-0.065,0.077-0.097l-0.213-0.153l-0.33-0.241
				c-0.019,0.025-0.539,0.504-0.949,1.388c-0.018-0.027-0.039-0.055-0.062-0.081c-0.123-0.134-0.295-0.202-0.514-0.198
				c-0.003,0-0.007,0-0.011,0c-0.135,0-0.228-0.046-0.289-0.101c0.061-0.076,0.098-0.173,0.098-0.28
				c0-0.249-0.203-0.453-0.454-0.453c-0.249,0-0.453,0.204-0.453,0.453c0,0.251,0.204,0.454,0.453,0.454
				c0.04,0,0.077-0.007,0.113-0.014c0.111,0.123,0.288,0.231,0.548,0.226c0.133-0.001,0.23,0.033,0.296,0.105
				c0.075,0.082,0.1,0.2,0.108,0.29c-0.001,0.001-0.001,0.003-0.002,0.003c-0.295,0.807-0.211,1.81-0.211,1.81l0.717,0.028
				c0.014-0.365,0.066-1.004,0.252-1.512C245.064,463.736,245.511,463.122,245.529,463.096z"/>
			<path style="fill:#1D1D1B;" d="M257.909,461.08c-0.249,0-0.453,0.202-0.453,0.453c0,0.039,0.006,0.076,0.016,0.112
				c-0.124,0.112-0.232,0.29-0.228,0.549c0.002,0.134-0.032,0.23-0.104,0.296c-0.058,0.051-0.13,0.078-0.2,0.096
				c-0.533-0.747-1.19-1.203-1.19-1.203l-0.514,0.551c0.389,0.354,0.785,0.797,1.171,1.349c0.267,0.382,0.542,0.875,0.77,1.366
				l0.693-0.33c0,0-0.316-0.783-0.763-1.485c0.077-0.027,0.155-0.069,0.225-0.13c0.136-0.123,0.202-0.296,0.198-0.514
				c-0.001-0.142,0.045-0.236,0.101-0.3c0.077,0.06,0.174,0.098,0.279,0.098c0.252,0,0.454-0.204,0.454-0.454
				C258.363,461.282,258.161,461.08,257.909,461.08z"/>
			<path style="fill:#1D1D1B;" d="M256.108,467.316c-0.955,0.466-2.527,1.08-4.596,1.369c-0.813,0.112-1.6,0.154-2.324,0.154
				c-0.941,0-1.774-0.07-2.414-0.151c-0.729-0.092-1.299-0.204-1.648-0.283c0.084,0.266,0.185,0.529,0.309,0.785
				c0.002,0.007,0.005,0.014,0.008,0.019c0.015,0.029,0.029,0.06,0.045,0.091c0.014,0.029,0.029,0.059,0.043,0.086
				c0.005,0.008,0.008,0.016,0.012,0.022c0.205,0.387,0.452,0.742,0.732,1.05c0.977,1.067,1.971,1.236,1.98,1.237l0.016,0.002
				l0.014,0.005c0.01,0.004,0.891,0.288,2.23,0.288c1.319,0,2.613-0.266,3.846-0.791c0.913-0.467,1.777-1.177,2.205-1.81
				c0.331-0.489,0.57-1.012,0.712-1.555c0.075-0.288,0.135-0.75,0.1-1.236C257.108,466.779,256.684,467.036,256.108,467.316z"/>
			<path style="fill:#1D1D1B;" d="M256.089,463.498c-1.35-1.94-2.819-2.44-3.569-2.56c-0.29-0.05-0.52-0.069-0.841-0.069
				c-0.31,0-0.68,0.02-1.189,0.069c-0.5,0.051-1.061,0.19-1.71,0.41c-0.921,0.3-1.74,0.78-2.39,1.38l-0.02,0.02
				c-0.101,0.09-0.3,0.28-0.53,0.57c-0.029,0.04-0.449,0.63-0.77,1.529c-0.25,0.681-0.24,1.66-0.24,1.67c0,0.23,0.02,0.46,0.04,0.69
				c0,0,0,0,0,0.01c0.01,0.03,0.01,0.05,0.01,0.08c0.02,0.16,0.05,0.32,0.08,0.48c0.479,0.119,3.31,0.779,6.47,0.34
				c1.99-0.28,3.49-0.86,4.41-1.311c0.76-0.359,1.25-0.699,1.44-0.84C257.089,465.278,256.569,464.178,256.089,463.498z
				 M248.569,466.638c-1.061,0-1.91-0.85-1.91-1.91c0-1.05,0.85-1.899,1.91-1.899c1.05,0,1.91,0.85,1.91,1.899
				C250.479,465.788,249.619,466.638,248.569,466.638z M254.149,465.238c-0.65,0-1.181-0.53-1.181-1.19c0-0.65,0.53-1.18,1.181-1.18
				c0.649,0,1.18,0.529,1.18,1.18C255.329,464.708,254.799,465.238,254.149,465.238z"/>
		</g>
	</g>
</g>
</svg>
